<svg width="21" height="21" viewBox="0 0 21 21" fill="none" xmlns="http://www.w3.org/2000/svg">
<path d="M-4.28484e-07 9.80257C-4.48801e-07 10.2674 -4.69118e-07 10.7322 -4.89434e-07 11.197C0.0308087 11.4464 0.0566883 11.6967 0.0932485 11.9453C0.39107 13.973 1.165 15.8001 2.53621 17.3252C5.37969 20.4879 8.91329 21.6283 13.0561 20.672C15.5882 20.0872 17.6011 18.6456 19.0881 16.5156C20.8175 14.0387 21.3651 11.2911 20.7666 8.3371C20.3197 6.13108 19.2286 4.26656 17.5678 2.74766C16.077 1.38452 14.3345 0.516574 12.3417 0.165206C11.9605 0.0982194 11.5756 0.0546579 11.1928 4.89251e-07C10.7282 4.68943e-07 10.2636 4.48634e-07 9.79896 4.28326e-07C9.74021 0.0131511 9.68188 0.0304113 9.62232 0.0382195C9.26452 0.0850686 8.9022 0.108904 8.54934 0.178767C5.94904 0.693697 3.82568 1.99684 2.1932 4.08451C1.13296 5.44067 0.452278 6.97231 0.163083 8.67285C0.0994105 9.04805 0.0538129 9.42614 -4.28502e-07 9.80298L-4.28484e-07 9.80257ZM10.4907 11.8927C10.5597 11.8265 10.6144 11.7768 10.6665 11.7246C11.8213 10.5698 12.9752 9.41504 14.1303 8.26066C14.1977 8.19326 14.2655 8.12463 14.341 8.06669C14.5333 7.91956 14.7506 7.85011 14.9934 7.89203C15.3393 7.95162 15.5804 8.14847 15.6909 8.48011C15.8145 8.8508 15.6901 9.15984 15.4222 9.42737C14.0063 10.8423 12.5936 12.2605 11.1743 13.6722C11.0617 13.7843 10.9196 13.8863 10.7717 13.9401C10.3971 14.0769 10.0824 13.945 9.81005 13.6717C8.39652 12.2543 6.98094 10.839 5.56619 9.42244C5.51813 9.37435 5.47006 9.32463 5.43022 9.26915C5.29384 9.07929 5.22359 8.86888 5.26303 8.63381C5.32054 8.2886 5.5132 8.04532 5.84429 7.92984C6.1873 7.81066 6.49334 7.89943 6.74762 8.14888C7.2155 8.60833 7.67682 9.07477 8.14019 9.53874C8.9174 10.3167 9.69462 11.095 10.4907 11.8923L10.4907 11.8927Z" fill="#F5F1E5"/>
<path d="M10.4909 11.8928C9.69437 11.0951 8.91757 10.3172 8.14036 9.53922C7.67699 9.07525 7.21567 8.60882 6.74778 8.14937C6.49391 7.89991 6.18747 7.81074 5.84446 7.93033C5.51336 8.04539 5.3207 8.28868 5.26319 8.6343C5.22417 8.86936 5.294 9.08018 5.43038 9.26964C5.47023 9.3247 5.51788 9.37443 5.56635 9.42292C6.9807 10.8395 8.39669 12.2544 9.81021 13.6722C10.083 13.9455 10.3972 14.0774 10.7719 13.9406C10.9198 13.8867 11.0615 13.7848 11.1744 13.6726C12.5937 12.261 14.0064 10.8428 15.4224 9.42786C15.6902 9.16032 15.8147 8.85087 15.6911 8.4806C15.5802 8.14896 15.339 7.95211 14.9935 7.89252C14.7512 7.8506 14.5335 7.92005 14.3412 8.06717C14.2656 8.12512 14.1978 8.19375 14.1305 8.26115C12.9758 9.41553 11.8214 10.5707 10.6667 11.7251C10.6145 11.7773 10.5603 11.8274 10.4909 11.8932L10.4909 11.8928Z" fill="#ED1C25"/>
</svg>
