<svg width="26" height="26" viewBox="0 0 26 26" fill="none" xmlns="http://www.w3.org/2000/svg">
<path d="M3.33673 21.8533C2.39615 20.8955 1.67688 19.7982 1.11721 18.6038C0.535196 17.3615 0.188861 16.0582 0.0537324 14.7029C0.0489444 14.6545 0.0627765 14.5991 0 14.5726V12.4911C0.0643725 12.4661 0.0500084 12.4097 0.0558604 12.3618C0.109593 11.918 0.168113 11.4748 0.266534 11.0371C0.860782 8.38965 2.19877 6.15037 4.29327 4.32689C4.62843 5.16967 4.96413 6.01296 5.29929 6.85625C4.70451 7.41505 4.23209 8.05935 3.80968 8.74539C2.93666 10.1627 2.50414 11.7017 2.39402 13.3288C2.34295 14.0784 2.41051 14.8276 2.54936 15.5681C2.76908 16.7401 3.17872 17.845 3.80702 18.8781C3.95651 19.1239 4.15867 19.3428 4.25284 19.6196C3.8964 20.3453 3.57826 21.0853 3.33726 21.8543L3.33673 21.8533Z" fill="#F55A61"/>
<path d="M17.042 1.73391C17.6341 1.45248 18.2229 1.16544 18.8181 0.890621C19.582 0.538444 20.3671 0.238686 21.1995 0.0651426C21.2485 0.0549641 21.3086 0.0595444 21.3325 0H21.9692C22.4804 0.224945 22.4756 0.669747 22.4639 1.10284C22.4357 2.12884 22.1017 3.09325 21.7862 4.06072C21.7575 4.14877 21.7352 4.23885 21.7096 4.32791C21.3745 5.17018 21.0389 6.01297 20.7038 6.85524C20.5692 7.14329 20.4352 7.43083 20.3006 7.71889C20.0133 7.45781 19.7969 7.1494 19.6341 6.80536C19.8155 6.64912 19.8995 6.4313 20.0075 6.23384C20.5687 5.20784 20.9889 4.12688 21.3144 3.01386C21.4841 2.43318 21.6362 1.84435 21.6495 1.23466C21.6517 1.13134 21.6995 0.996987 21.5687 0.936934C21.4272 0.8723 21.3213 0.969505 21.2171 1.04992C20.8251 1.35222 20.4931 1.70999 20.1506 2.06166C19.4734 2.75736 18.849 3.49531 18.2016 4.21493C17.9346 3.99863 17.7367 3.71974 17.4681 3.5009C16.9585 3.08562 16.3952 2.75431 15.8154 2.44386C16.2245 2.20721 16.6335 1.97056 17.0426 1.73391H17.042Z" fill="#FFC839"/>
<path d="M4.61508 0.000508926C5.05232 0.14708 5.50977 0.225963 5.94435 0.384239C6.84489 0.713006 7.71192 1.10793 8.55874 1.54663C8.69013 1.61482 8.82736 1.67182 8.96194 1.73391C9.36992 1.96955 9.7779 2.20518 10.1859 2.44081C10.1428 2.4688 10.1024 2.5029 10.0561 2.52427C9.58482 2.73904 9.15609 3.01335 8.74438 3.32024C8.40129 3.57572 8.14491 3.91466 7.79863 4.16353C7.51671 3.95487 7.32894 3.66529 7.09702 3.41337C6.6433 2.92124 6.20606 2.41435 5.74382 1.92985C5.42945 1.60006 5.10977 1.27079 4.73051 1.00411C4.64434 0.94355 4.54912 0.882987 4.43795 0.930318C4.32625 0.978157 4.35178 1.08554 4.35018 1.17664C4.33689 1.7904 4.50657 2.37669 4.6704 2.95992C4.92147 3.85614 5.24275 4.73251 5.65286 5.57427C5.85978 5.99922 6.0385 6.44403 6.36776 6.80587C6.18638 7.13718 5.97893 7.4517 5.69648 7.71482C5.5635 7.42829 5.43105 7.14176 5.29807 6.85524C4.96296 6.01195 4.62732 5.16917 4.29221 4.32587C4.05603 3.54874 3.77624 2.78281 3.63262 1.98176C3.55815 1.56546 3.5039 1.14865 3.54592 0.723693C3.57837 0.396963 3.70762 0.141482 4.0321 0H4.61561L4.61508 0.000508926Z" fill="#FFB332"/>
<path d="M22.6592 21.8594C22.0517 22.5597 21.332 23.1424 20.5639 23.6712C18.841 24.8575 16.924 25.5939 14.8245 25.8738C12.4958 26.1843 10.2346 25.9257 8.05794 25.0545C8.0606 24.9613 8.05369 24.8672 8.06805 24.7756C8.24199 23.634 8.48773 22.5093 8.8888 21.4177C9.13083 20.7591 8.84199 20.2227 8.16326 19.9545C7.48347 19.6863 6.87814 19.297 6.3276 18.8283C5.87281 18.4415 5.54834 17.9641 5.24993 17.4659C5.22174 17.36 5.19514 17.2541 5.16536 17.1488C4.8228 15.9426 5.22014 14.9421 6.09728 14.0744C6.2542 14.796 6.67442 15.3589 7.27974 15.7905C8.91167 16.9544 10.8 17.3061 12.7814 17.3519C13.1346 17.3656 13.4857 17.3442 13.8389 17.3229C15.1091 17.245 16.3415 17.0114 17.4958 16.4902C18.6176 15.9839 19.5996 15.3304 19.8964 14.0667C20.7879 14.9584 21.1948 15.9778 20.8113 17.2099C20.6932 17.589 20.7017 17.9697 20.906 18.3158C21.1698 18.7626 21.4661 19.1916 21.748 19.6283C22.0932 20.3561 22.4124 21.094 22.6592 21.8584V21.8594Z" fill="#FFC839"/>
<path d="M22.6596 21.8594C22.4127 21.0945 22.0935 20.3571 21.7482 19.6293C21.7451 19.5463 21.7998 19.4893 21.8429 19.4252C22.7335 18.1045 23.3145 16.679 23.5188 15.1085C23.6416 14.1644 23.64 13.228 23.4932 12.2941C23.2911 11.0081 22.8527 9.79581 22.1494 8.67668C21.736 8.01864 21.2833 7.39012 20.7002 6.85574C21.0354 6.01347 21.3711 5.17069 21.7062 4.32841C23.7092 6.06385 25.0589 8.18506 25.6446 10.7053C26.5916 14.7792 25.6404 18.4389 22.8596 21.6584C22.7979 21.7296 22.7261 21.7922 22.6585 21.8589L22.6596 21.8594Z" fill="#F55A61"/>
<path d="M5.25018 17.4659C5.54863 17.9636 5.87368 18.441 6.32802 18.8282C6.87864 19.297 7.48406 19.6858 8.16396 19.9545C8.8428 20.2227 9.13168 20.7591 8.88961 21.4177C8.48848 22.5088 8.2427 23.634 8.06873 24.7756C8.0549 24.8672 8.06182 24.9613 8.05862 25.0545C7.23136 24.7689 6.47538 24.3532 5.74707 23.8895C4.89799 23.3485 4.1319 22.7129 3.4387 21.9968C3.39827 21.9546 3.36954 21.9022 3.33496 21.8543C3.57596 21.0853 3.8941 20.3454 4.25054 19.6196C4.46919 19.2832 4.67933 18.9417 4.90916 18.6125C5.15282 18.2628 5.28103 17.8883 5.25018 17.4669V17.4659Z" fill="#FFB332"/>
<path d="M5.25121 17.4659C5.28207 17.8873 5.15386 18.2618 4.9102 18.6115C4.6809 18.9407 4.47023 19.2822 4.25158 19.6186C4.15741 19.3423 3.95525 19.1234 3.80576 18.8771C3.17746 17.844 2.76782 16.7391 2.5481 15.5671C2.40925 14.8266 2.34222 14.0774 2.39276 13.3278C2.50288 11.7007 2.93593 10.1612 3.80842 8.74439C4.23083 8.05836 4.70325 7.41406 5.29803 6.85526C5.43103 7.14178 5.5635 7.42831 5.6965 7.71483C5.67948 7.8044 5.60712 7.85835 5.5502 7.92196C5.15386 8.36778 4.70857 8.76576 4.25317 9.1556C3.76799 9.57089 3.7366 10.0081 4.14092 10.4864C4.34627 10.7297 4.54578 10.9776 4.75219 11.2198C4.81125 11.289 4.84689 11.3557 4.83253 11.4493C4.76337 11.9028 4.98628 12.2087 5.37836 12.4305C5.53796 12.5206 5.68958 12.6229 5.84493 12.7196C5.655 12.8799 5.46295 13.0382 5.27569 13.2016C5.14907 13.312 5.1081 13.4428 5.23632 13.5741C5.36081 13.7018 5.49806 13.6815 5.6316 13.5751C5.81301 13.4306 5.99602 13.2886 6.1785 13.1456C6.09923 13.4509 6.09391 13.7619 6.09657 14.0739C5.21929 14.9411 4.82189 15.9421 5.1645 17.1483C5.19429 17.2536 5.22089 17.3595 5.24909 17.4654L5.25121 17.4659Z" fill="#ED1C25"/>
<path d="M10.1859 2.44134C9.77788 2.20571 9.3699 1.97008 8.96191 1.73393C11.654 0.904892 14.3465 0.903874 17.0386 1.73393C16.6296 1.97058 16.2205 2.20723 15.8115 2.44439C15.7604 2.4388 15.7093 2.43269 15.6583 2.42709C15.037 2.13344 14.3774 1.97771 13.688 1.92987C13.3343 1.83165 12.9705 1.87033 12.6141 1.8861C11.805 1.92173 11.0231 2.08916 10.2917 2.43727C10.2566 2.4388 10.221 2.44032 10.1859 2.44134Z" fill="#F55A61"/>
<path d="M15.6603 2.42711C15.7114 2.43271 15.7625 2.43881 15.8135 2.44441C16.3933 2.75486 16.9566 3.08617 17.4662 3.50145C17.7348 3.72029 17.9327 3.99918 18.1997 4.21548C18.2354 4.27349 18.263 4.33711 18.3072 4.38851C18.7146 4.85978 19.0067 5.39415 19.2407 5.95906C19.3599 6.2466 19.4354 6.55196 19.6327 6.80591C19.796 7.14995 20.0125 7.45835 20.2992 7.71943C20.337 7.84768 20.4423 7.93064 20.5296 8.02377C20.9194 8.43855 21.3423 8.82126 21.778 9.19227C22.2019 9.5531 22.2397 9.9979 21.8961 10.4284C21.6817 10.6967 21.4588 10.9588 21.2381 11.2224C21.1764 11.2962 21.1365 11.3598 21.1562 11.4702C21.2221 11.8407 21.0689 12.1298 20.7482 12.3384C20.5514 12.4667 20.3508 12.5894 20.1519 12.714C19.6274 12.371 19.1141 12.0122 18.5471 11.7308C18.0673 11.4926 17.5737 11.2901 17.0577 11.1379C16.8923 11.089 16.7258 11.0987 16.6715 11.2916C16.6199 11.4733 16.7284 11.5776 16.9066 11.626C16.9662 11.6422 17.0247 11.6606 17.0832 11.6799C18.0258 11.9934 18.8896 12.4443 19.6721 13.0367C19.3109 13.2627 18.9513 13.4907 18.5886 13.7146C16.9529 14.7258 15.1667 15.2744 13.2146 15.3096C13.4906 14.8602 13.4465 14.7447 12.9215 14.5329C12.7757 14.4739 12.6284 14.4174 12.4864 14.3507C11.5273 13.8993 10.6688 13.2927 9.77784 12.7359C9.35868 12.4738 8.92144 12.2326 8.69431 11.7735C8.82091 11.6916 8.97091 11.6672 9.11187 11.6224C9.2906 11.5659 9.38581 11.4524 9.32677 11.2763C9.26826 11.1023 9.11187 11.0972 8.95336 11.1338C8.85123 11.1577 8.7507 11.1888 8.6491 11.2168C8.49857 10.9608 8.25122 10.771 8.11878 10.5028C8.5358 10.4183 8.95868 10.461 9.3789 10.4539C9.74486 10.4473 9.8906 10.3806 9.86879 10.1816C9.83475 9.8727 9.57411 9.95158 9.37836 9.94751C8.85176 9.93733 8.32463 9.94344 7.79962 9.9923C7.8076 9.82639 7.76079 9.64826 7.87782 9.50271C8.29112 8.98819 8.82091 8.5897 9.33155 8.17187C9.33741 8.16729 9.34858 8.16882 9.35709 8.1678C9.48581 8.30419 9.63049 8.34847 9.79645 8.22938C9.93582 8.12963 10.0693 8.13319 10.206 8.23396C10.3156 8.31437 10.4342 8.32404 10.5475 8.24719C10.6731 8.16169 10.6784 8.03751 10.6465 7.90672C10.5736 7.60849 10.356 7.4441 9.97624 7.40135C9.98369 7.36013 9.97677 7.30924 10.0002 7.27972C10.406 6.75756 10.5741 6.12955 10.8513 5.55039C11.0513 5.13256 11.2927 4.73255 11.6236 4.39055C11.706 4.445 11.7098 4.51218 11.73 4.5758C11.8795 5.05113 12.0348 5.52342 12.2933 5.95906C12.6066 6.48681 13.1757 6.55552 13.5965 6.10461C13.7688 5.91987 13.855 5.68475 13.9545 5.46031C14.2396 4.81652 14.3768 4.12489 14.6534 3.47702C14.8566 3.00118 15.1194 2.59709 15.6603 2.42711ZM15.5274 11.8809C15.8066 10.6972 15.5673 9.6101 14.847 8.61972C14.7369 8.46806 14.6577 8.26958 14.4332 8.2192C14.4332 8.12199 14.3566 8.06907 14.2922 8.01512C13.7146 7.53011 13.0491 7.47108 12.3422 7.66956C12.0199 7.76015 11.7178 7.89705 11.5677 8.2192C11.4337 8.22785 11.3784 8.33371 11.3103 8.41768C10.4725 9.44826 10.1768 10.5994 10.4725 11.8814C10.5917 12.485 10.8848 12.7293 11.5167 12.7324C12.5055 12.7369 13.4949 12.7369 14.4837 12.7324C15.1157 12.7293 15.4109 12.483 15.5274 11.8814V11.8809ZM17.113 9.94751C16.8742 9.94751 16.6359 9.94599 16.3971 9.94751C16.2433 9.94853 16.1412 10.0162 16.1311 10.1704C16.1199 10.3333 16.2157 10.4229 16.3763 10.4473C16.4455 10.458 16.5173 10.4514 16.588 10.4508C17.2242 10.4447 17.8566 10.4732 18.4896 10.5455C19.0428 10.6091 19.5859 10.7094 20.1242 10.8412C20.2955 10.8834 20.4099 10.8081 20.4588 10.6692C20.5109 10.5201 20.4327 10.4076 20.2748 10.3557C20.2162 10.3363 20.1567 10.3221 20.0966 10.3073C19.1178 10.0691 18.1226 9.95057 17.113 9.9465V9.94751ZM16.662 8.01207C16.6635 7.67719 16.3529 7.40186 15.9822 7.41001C15.63 7.41764 15.3279 7.70671 15.3391 8.0253C15.3465 8.24057 15.5545 8.37442 15.7444 8.2594C15.9252 8.14999 16.063 8.13624 16.2492 8.25228C16.4534 8.37951 16.6609 8.24566 16.662 8.01207Z" fill="#FFDD40"/>
<path d="M20.1505 12.7135C20.3494 12.5883 20.55 12.4657 20.7474 12.3374C21.0682 12.1288 21.2219 11.8392 21.1554 11.4692C21.1357 11.3588 21.1756 11.2951 21.2373 11.2214C21.4581 10.9582 21.681 10.6961 21.8954 10.4274C22.2396 9.99688 22.2013 9.55208 21.7773 9.19125C21.3416 8.82024 20.9187 8.43753 20.5287 8.02275C20.4415 7.92962 20.3361 7.84666 20.2984 7.71842C20.4329 7.43036 20.567 7.14282 20.7016 6.85477C21.2847 7.38914 21.7374 8.01766 22.1508 8.67571C22.8541 9.79484 23.2925 11.0071 23.4946 12.2932C23.6415 13.227 23.6431 14.1635 23.5202 15.1075C23.3153 16.6781 22.7344 18.1031 21.8444 19.4242C21.8013 19.4884 21.7465 19.5454 21.7497 19.6283C21.4672 19.1917 21.1714 18.7626 20.9075 18.3158C20.7032 17.9697 20.6947 17.589 20.8128 17.2099C21.1958 15.9778 20.7894 14.9579 19.8978 14.0668C19.9302 13.7741 19.8472 13.4881 19.8467 13.1975C20.0568 13.2606 20.1808 13.4347 20.343 13.5583C20.4856 13.6667 20.6239 13.7156 20.7612 13.5756C20.9027 13.4316 20.8367 13.2978 20.7032 13.1833C20.5202 13.026 20.3351 12.8703 20.151 12.714L20.1505 12.7135Z" fill="#ED1C25"/>
<path d="M19.6324 6.80535C19.4351 6.5514 19.3595 6.24604 19.2403 5.9585C19.0063 5.39359 18.7142 4.85972 18.3067 4.38795C18.2625 4.33706 18.2349 4.27293 18.1992 4.21492C18.8461 3.49529 19.4707 2.75735 20.1485 2.06165C20.4906 1.70998 20.8231 1.35271 21.2151 1.0499C21.32 0.968983 21.4253 0.872287 21.5668 0.936921C21.6977 0.996465 21.6498 1.13082 21.6477 1.23464C21.6344 1.84434 21.4822 2.43316 21.3125 3.01385C20.9869 4.12687 20.5666 5.20783 20.0054 6.23383C19.8974 6.4318 19.8133 6.64911 19.6319 6.80535H19.6324Z" fill="#FFB332"/>
<path d="M15.6587 2.42708C15.1177 2.59706 14.8549 3.00115 14.6517 3.47699C14.3751 4.12485 14.2379 4.81649 13.9528 5.46028C13.8533 5.68471 13.7672 5.91984 13.5948 6.10458C13.1741 6.55549 12.6044 6.48627 12.2916 5.95903C12.0331 5.52338 11.8778 5.0511 11.7283 4.57576C11.7081 4.51215 11.7049 4.44497 11.6219 4.39051C11.2911 4.73251 11.0496 5.13253 10.8496 5.55036C10.5724 6.13002 10.4044 6.75753 9.9985 7.27969C9.97563 7.30921 9.98201 7.3601 9.97456 7.40132C9.50275 7.48326 9.30487 7.72805 9.35488 8.16777C9.34636 8.16929 9.33466 8.16777 9.32934 8.17184C8.81923 8.58967 8.28891 8.98866 7.8756 9.50268C7.75911 9.64823 7.80592 9.82636 7.79741 9.99227C7.13038 10.0569 6.47186 10.1668 5.82186 10.3256C5.64526 10.3689 5.48409 10.4478 5.53515 10.6483C5.58675 10.8518 5.74952 10.8737 5.95431 10.8228C6.66282 10.6467 7.38145 10.5221 8.11656 10.5022C8.24901 10.7704 8.49636 10.9602 8.64689 11.2162C8.46018 11.2905 8.27295 11.3633 8.08624 11.4391C7.27719 11.7669 6.55378 12.2326 5.8442 12.7206C5.68888 12.6239 5.53675 12.5216 5.37717 12.431C4.98515 12.2092 4.76227 11.9033 4.83142 11.4498C4.84578 11.3567 4.81014 11.29 4.7511 11.2203C4.54472 10.9775 4.34525 10.7302 4.13992 10.4869C3.73566 10.008 3.76705 9.57088 4.25216 9.1561C4.70748 8.76677 5.1527 8.36828 5.54898 7.92246C5.6059 7.85885 5.67824 7.8049 5.69526 7.71533C5.97824 7.45222 6.18516 7.1377 6.36654 6.80639C6.42984 6.75448 6.44793 6.68068 6.47772 6.61045C6.77506 5.9117 7.04262 5.1992 7.52081 4.58391C7.62347 4.45209 7.76496 4.33911 7.79794 4.16404C8.14422 3.91518 8.40061 3.57623 8.7437 3.32075C9.15594 3.01387 9.58467 2.73956 10.0554 2.52479C10.1022 2.50342 10.1421 2.46932 10.1852 2.44133C10.2203 2.4398 10.2559 2.43827 10.2911 2.43726C10.5075 2.51817 10.7544 2.54617 10.9049 2.74617C11.0538 2.94465 11.2113 3.13754 11.2996 3.37215C11.4139 3.67598 11.5326 3.97879 11.6512 4.28771C11.8161 4.19763 11.8804 4.03986 11.9948 3.92485C12.4788 3.43831 13.0304 3.03881 13.6289 2.69121C13.8842 2.54311 13.9193 2.29526 13.7517 2.06472C13.723 2.02502 13.7086 1.97515 13.6879 1.92986C14.3773 1.97769 15.0374 2.13343 15.6587 2.42708Z" fill="#FFC839"/>
<path d="M7.80024 4.16406C7.76726 4.33964 7.62575 4.45211 7.52307 4.58392C7.04426 5.19871 6.7772 5.9112 6.47981 6.61047C6.45002 6.6807 6.43193 6.75449 6.36862 6.80641C6.03931 6.44456 5.86056 5.99976 5.65361 5.5748C5.24343 4.73304 4.92263 3.85718 4.671 2.96045C4.50767 2.37722 4.33796 1.79094 4.35073 1.17717C4.35286 1.08607 4.32732 0.979198 4.43851 0.93085C4.5497 0.883011 4.64493 0.944082 4.73111 1.00464C5.11043 1.27132 5.43016 1.6006 5.74458 1.93038C6.20689 2.41488 6.6442 2.92177 7.098 3.4139C7.32995 3.66531 7.51722 3.9554 7.79971 4.16406H7.80024Z" fill="#FF9100"/>
<path d="M19.8448 13.1975C19.8448 13.4881 19.9278 13.7746 19.8959 14.0667C19.5991 15.3304 18.6171 15.9839 17.4953 16.4902C16.341 17.0114 15.1086 17.245 13.8384 17.3228C13.4852 17.3447 13.1341 17.3656 12.7809 17.3519C12.7016 17.3178 12.6213 17.2857 12.5437 17.2485C11.9718 16.9753 11.7708 16.3116 12.0963 15.7895C12.2341 15.5686 12.4713 15.4704 12.6804 15.337C12.8575 15.3279 13.0346 15.3182 13.2112 15.309C15.1634 15.2739 16.9496 14.7253 18.5852 13.7141C18.9474 13.4901 19.3076 13.2621 19.6687 13.0362C19.7092 13.0662 19.7501 13.0962 19.7905 13.1262C19.7975 13.1593 19.7996 13.1949 19.8464 13.2005L19.8443 13.197L19.8448 13.1975Z" fill="#49D88B"/>
<path d="M12.6817 15.3376C12.4722 15.4709 12.2355 15.5691 12.0977 15.79C11.7716 16.3121 11.9727 16.9758 12.545 17.2491C12.6227 17.2862 12.703 17.3178 12.7823 17.3524C10.8009 17.3066 8.91255 16.9549 7.28062 15.791C6.67529 15.3589 6.25507 14.7966 6.09816 14.0749C6.0955 13.7629 6.10082 13.452 6.17954 13.1466C6.22582 13.0998 6.27263 13.0525 6.34284 13.0382C6.50401 13.1415 6.66891 13.2392 6.82583 13.3487C8.57318 14.5645 10.5216 15.2378 12.6828 15.3381L12.6817 15.3376Z" fill="#38C674"/>
<path d="M6.34094 13.0382C6.27072 13.0525 6.2239 13.0998 6.17762 13.1466C5.99567 13.2896 5.81213 13.4316 5.63072 13.5761C5.49718 13.6825 5.35993 13.7029 5.23544 13.5751C5.10723 13.4438 5.14819 13.313 5.27481 13.2026C5.46207 13.0392 5.65413 12.8809 5.84405 12.7206C6.55374 12.2331 7.27674 11.7674 8.08645 11.4392C8.27265 11.3638 8.45992 11.2906 8.64718 11.2162C8.74826 11.1883 8.84881 11.1572 8.95149 11.1333C9.11002 11.0961 9.26643 11.1017 9.32495 11.2758C9.38401 11.4524 9.28878 11.5654 9.11002 11.6219C8.96851 11.6666 8.81902 11.6911 8.6924 11.773C7.83162 12.0636 7.04851 12.4865 6.34147 13.0377L6.34094 13.0382Z" fill="#E8EDFA"/>
<path d="M13.6913 1.92936C13.7121 1.97465 13.7264 2.02402 13.7552 2.06422C13.9227 2.29476 13.8876 2.54261 13.6323 2.69071C13.0338 3.03831 12.4821 3.43781 11.998 3.92435C11.8836 4.03936 11.8192 4.19713 11.6543 4.28721C11.5356 3.97829 11.417 3.67599 11.3026 3.37165C11.2143 3.13755 11.0568 2.94415 10.9079 2.74567C10.7579 2.54567 10.511 2.51767 10.2939 2.43676C11.0255 2.08865 11.8075 1.92172 12.6167 1.88559C12.9731 1.86981 13.337 1.83113 13.6908 1.92936H13.6913Z" fill="#F3B54F"/>
<path d="M14.4334 8.21915C14.6579 8.27005 14.7371 8.46853 14.8473 8.61968C15.5676 9.60954 15.807 10.6971 15.5277 11.8809C15.2633 11.8809 14.9989 11.8814 14.7339 11.8809C14.0386 11.8799 13.4534 11.3419 13.4247 10.6768C13.4114 10.3658 13.2667 10.206 13.0007 10.2055C12.7341 10.2055 12.5894 10.3658 12.5756 10.6757C12.5469 11.3409 11.9665 11.8753 11.2658 11.8804C11.0014 11.8824 10.737 11.8804 10.4721 11.8804C10.1763 10.5984 10.4721 9.44719 11.31 8.41662C11.3781 8.33315 11.4334 8.22679 11.5675 8.21864C12.2388 8.9856 13.7609 8.9856 14.4334 8.21864V8.21915Z" fill="#E9EEFC"/>
<path d="M6.34277 13.0382C7.05023 12.487 7.83268 12.0641 8.69333 11.7735C8.92046 12.2326 9.35717 12.4738 9.77685 12.7359C10.6678 13.2927 11.5263 13.8993 12.4854 14.3507C12.6274 14.4174 12.7748 14.4739 12.9205 14.5329C13.4455 14.7446 13.4897 14.8602 13.2136 15.3095C13.0365 15.3187 12.8593 15.3284 12.6827 15.3375C10.5215 15.2378 8.57365 14.564 6.82576 13.3481C6.66884 13.2392 6.50395 13.141 6.34277 13.0377V13.0382Z" fill="#F5C957"/>
<path d="M10.4727 11.8809C10.7371 11.8809 11.002 11.8829 11.2664 11.8809C11.9671 11.8763 12.5475 11.3419 12.5762 10.6763C12.5895 10.3663 12.7347 10.2055 13.0013 10.206C13.2678 10.206 13.412 10.3663 13.4253 10.6773C13.4545 11.3425 14.0392 11.8804 14.7345 11.8814C14.9989 11.8814 15.2634 11.8814 15.5283 11.8814C15.4118 12.4825 15.1165 12.7293 14.4845 12.7323C13.4955 12.7369 12.506 12.7369 11.517 12.7323C10.885 12.7293 10.5918 12.485 10.4727 11.8814V11.8809Z" fill="#DBE1F9"/>
<path d="M14.4333 8.21918C13.7614 8.98613 12.2393 8.98613 11.5674 8.21918C11.7174 7.89703 12.0196 7.76012 12.342 7.66954C13.0485 7.47156 13.7146 7.53009 14.2923 8.0151C14.3567 8.06904 14.4328 8.12197 14.4333 8.21918Z" fill="#F3B54F"/>
<path d="M19.7923 13.1268C19.7519 13.0967 19.7114 13.0667 19.6705 13.0367C18.8874 12.4443 18.0234 11.9934 17.0807 11.6799C17.0222 11.6605 16.9636 11.6422 16.9041 11.6259C16.7264 11.5776 16.6178 11.4727 16.6689 11.2916C16.7237 11.0982 16.8897 11.089 17.0551 11.1379C17.5712 11.2895 18.0654 11.4926 18.5448 11.7308C19.1113 12.0122 19.6247 12.371 20.1498 12.714C20.3339 12.8703 20.519 13.026 20.702 13.1832C20.8356 13.2978 20.9015 13.4316 20.76 13.5756C20.6222 13.7156 20.4844 13.6667 20.3419 13.5583C20.1796 13.4347 20.0556 13.2606 19.8455 13.1975L19.8476 13.2011C19.8524 13.1603 19.8216 13.1441 19.7918 13.1268H19.7923Z" fill="#E8EDFA"/>
<path d="M8.11877 10.5022C7.38408 10.5221 6.66534 10.6473 5.95618 10.8229C5.75136 10.8738 5.58856 10.8519 5.53696 10.6483C5.48589 10.4478 5.64655 10.3689 5.82371 10.3256C6.47328 10.1669 7.13244 10.0569 7.79957 9.99229C8.32466 9.94343 8.85187 9.93682 9.37856 9.9475C9.57434 9.95158 9.83502 9.87218 9.86907 10.1816C9.89088 10.3801 9.74511 10.4473 9.37909 10.4539C8.95881 10.461 8.53586 10.4188 8.11877 10.5027V10.5022Z" fill="#E8EDFA"/>
<path d="M17.1137 9.94749C18.1235 9.95157 19.1189 10.0701 20.0978 10.3083C20.1573 10.3231 20.2175 10.3373 20.276 10.3567C20.434 10.4086 20.5122 10.5211 20.46 10.6702C20.4111 10.8091 20.2967 10.8844 20.1254 10.8422C19.587 10.7104 19.0444 10.6101 18.4906 10.5465C17.8575 10.4737 17.2244 10.4457 16.5887 10.4518C16.5179 10.4523 16.4461 10.459 16.3769 10.4483C16.2163 10.4233 16.121 10.3338 16.1317 10.1714C16.1418 10.0172 16.2439 9.94953 16.3977 9.94851C16.636 9.94648 16.8749 9.94851 17.1137 9.94851V9.94749Z" fill="#E8EDFA"/>
<path d="M9.35534 8.16778C9.3048 7.72807 9.50271 7.48327 9.97513 7.40134C10.355 7.44409 10.5726 7.60796 10.6449 7.9067C10.6768 8.0375 10.6715 8.16218 10.546 8.24717C10.4326 8.32402 10.314 8.31435 10.2044 8.23394C10.0677 8.13368 9.93416 8.12961 9.79478 8.22936C9.62879 8.34794 9.48408 8.30417 9.35534 8.16778Z" fill="#1E2942"/>
<path d="M16.6613 8.01204C16.6602 8.24564 16.4522 8.37949 16.2485 8.25225C16.0622 8.13622 15.9245 8.14996 15.7436 8.25938C15.5537 8.3744 15.3456 8.24055 15.3382 8.02527C15.327 7.70669 15.6292 7.41762 15.9814 7.40998C16.3517 7.40184 16.6629 7.67717 16.6613 8.01204Z" fill="#1E2942"/>
<path d="M19.792 13.1267C19.8228 13.1439 19.8547 13.161 19.8498 13.2025C19.8013 13.1968 19.7986 13.1605 19.792 13.1267Z" fill="#5846B7"/>
</svg>
