<svg width="24" height="24" viewBox="0 0 24 24" fill="none" xmlns="http://www.w3.org/2000/svg">
<circle cx="12" cy="12" r="12" fill="#ED1C25"/>
<g clip-path="url(#clip0_264_221)">
<path d="M7 11.6564C7.01312 11.5998 7.0265 11.5435 7.03935 11.4869C7.26236 10.5133 8.38354 10.1486 9.10691 10.8182C9.81394 11.4726 10.5164 12.1321 11.2205 12.7901C11.462 13.0159 11.5784 13.0101 11.7972 12.7566C13.9796 10.2274 16.1622 7.69822 18.3441 5.16821C18.4523 5.04297 18.5735 4.96524 18.7414 5.01495C18.8937 5.05972 18.9909 5.16875 18.9995 5.32722C19.004 5.41429 18.97 5.51563 18.924 5.59198C17.9051 7.28296 16.8821 8.97147 15.86 10.6603C14.7533 12.4886 13.6409 14.313 12.5438 16.1474C12.2935 16.5659 12.0054 16.9032 11.5145 16.9998H11.194C10.9043 16.9238 10.6484 16.7941 10.4535 16.5486C9.42602 15.2531 8.39639 13.9595 7.36543 12.6673C7.21417 12.4776 7.09022 12.2763 7.03935 12.0337C7.02597 11.9719 7.01312 11.9102 7 11.8484C7 11.7844 7 11.7204 7 11.6567V11.6564Z" fill="white"/>
</g>
<defs>
<clipPath id="clip0_264_221">
<rect width="12" height="12" fill="white" transform="translate(7 5)"/>
</clipPath>
</defs>
</svg>
