<svg width="26" height="26" viewBox="0 0 26 26" fill="none" xmlns="http://www.w3.org/2000/svg">
<path d="M26 14.5169C25.8846 14.811 25.8995 15.1254 25.85 15.4291C25.4835 17.6748 24.5522 19.6767 23.0453 21.4335C22.8724 21.6349 22.6873 21.8267 22.5075 22.0236C22.2549 21.3505 22.0022 20.6769 21.749 20.0039C21.8091 19.9789 21.8379 19.9275 21.873 19.8777C22.2783 19.3023 22.6049 18.6862 22.8671 18.0416C23.4618 16.5794 23.7128 15.0704 23.566 13.4984C23.4931 12.7159 23.3405 11.9553 23.1027 11.2064C22.8293 10.3451 22.3905 9.55907 21.916 8.7883C22.2825 8.65195 22.5346 8.39808 22.7176 8.0735C23.1309 7.54897 23.3836 6.94558 23.6431 6.34525C23.6516 6.45259 23.725 6.53043 23.7836 6.61336C24.8729 8.16151 25.5575 9.85873 25.8537 11.703C25.9011 11.9981 25.8856 12.3033 25.9995 12.5882V14.5169H26Z" fill="#F55A61"/>
<path d="M5.196 0.78247C6.20007 0.446181 7.22596 0.194854 8.28056 0.0559634C8.33587 0.048332 8.40819 0.0752962 8.43904 0H9.7654C9.82762 0.0895414 9.93718 0.0641035 10.0233 0.0864888C10.218 0.137873 10.3754 0.219783 10.4536 0.407006C10.5004 0.798241 10.3866 1.15946 10.2233 1.50948C9.62978 2.7824 8.77834 3.89963 7.90562 5.00313C7.27276 5.80289 6.59415 6.56654 5.89694 7.31492C5.63581 7.57133 5.39011 7.84352 5.10027 8.07195C4.8551 7.92238 4.74767 7.6736 4.64291 7.43855C4.18182 6.40475 4.02812 5.30838 3.99143 4.19725C3.97813 3.78974 4.02759 3.37561 4.09619 2.97165C4.20203 2.34741 4.39348 1.75216 4.81841 1.23781C4.94285 1.08722 5.1827 1.0165 5.196 0.782978V0.78247Z" fill="#2D3C6B"/>
<path d="M5.89604 7.31441C6.59326 6.56603 7.27239 5.80238 7.90473 5.00262C8.77797 3.89912 9.62889 2.78189 10.2224 1.50898C10.3857 1.15895 10.4995 0.797732 10.4527 0.406498C10.6729 0.303728 10.9143 0.267098 11.1467 0.201468C11.477 0.108365 11.828 0.114979 12.1524 0H13.7968C13.8414 0.0768224 13.9207 0.0427357 13.985 0.0508758C14.4796 0.112435 14.9673 0.203503 15.4385 0.364779C15.4082 0.422778 15.3523 0.440076 15.2933 0.46297C15.0077 0.574388 14.7147 0.674104 14.444 0.812995C13.5138 1.29021 12.6741 1.87579 11.9902 2.6608C11.2924 3.46159 10.7638 4.34123 10.4378 5.33789C10.3442 5.62381 10.3229 5.92957 10.1729 6.19871C10.124 6.18039 10.0746 6.16258 10.0262 6.14325C9.46083 5.91991 8.86732 6.20583 8.7232 6.77055C8.67267 6.96795 8.69714 7.14601 8.89232 7.25947C9.06197 7.35817 9.22417 7.33171 9.37734 7.20655C9.54007 7.07326 9.71238 7.07682 9.88522 7.19842C9.94904 7.24319 10.0192 7.27931 10.0863 7.3195C10.0597 8.11774 10.1006 8.91395 10.1485 9.71066C9.93202 9.78799 9.71504 9.86583 9.49859 9.94316C9.48583 9.90348 9.48051 9.85922 9.4587 9.82462C8.94231 8.99077 8.25307 8.32938 7.36174 7.85573C6.89639 7.60847 6.38319 7.49706 5.89551 7.31492L5.89604 7.31441Z" fill="#A05838"/>
<path d="M17.5113 0C17.8995 0.0681736 18.2882 0.133295 18.6754 0.206047C18.8195 0.233011 18.9599 0.276256 19.1019 0.311869C19.1322 0.90915 19.2477 1.49626 19.3822 2.07573C19.7093 3.47838 20.1831 4.83116 20.9505 6.07966C21.4201 6.84432 22.0195 7.49756 22.7183 8.07297C22.5354 8.39756 22.2833 8.65143 21.9169 8.78777C21.5159 8.70129 21.2755 8.38738 20.9649 8.17319C20.6841 7.90152 20.4028 7.62984 20.122 7.35816C19.4875 6.63369 18.827 5.93008 18.2266 5.17814C17.3363 4.06294 16.4715 2.93197 15.8387 1.65804C15.6414 1.26121 15.4754 0.852169 15.5409 0.396322C15.6467 0.10226 15.9653 0.124646 16.1849 0C16.6268 0 17.0688 0 17.5113 0Z" fill="#213159"/>
<path d="M21.7502 20.0034C22.0028 20.6764 22.2554 21.35 22.5086 22.0231C22.4522 22.1061 22.3879 22.1824 22.298 22.2353C22.2023 22.219 22.1331 22.2673 22.0555 22.3121C20.8834 22.9898 19.6607 23.5631 18.3439 23.9401C17.3792 24.2164 16.3943 24.3721 15.3896 24.4128C14.8701 24.4336 14.3547 24.3761 13.8378 24.3202C12.679 24.195 11.6111 23.8216 10.6017 23.2859C10.0901 23.0142 9.64333 22.6525 9.26468 22.2231C9.06152 21.9926 8.9041 21.9575 8.63606 22.1239C8.43663 22.2475 8.23507 22.3696 8.04202 22.5024C7.88939 22.6072 7.72665 22.6367 7.57721 22.5365C7.42192 22.4322 7.41394 22.277 7.48308 22.105C7.60965 21.7901 7.72612 21.4716 7.83302 21.1506C7.88194 21.0041 7.89524 20.8494 7.74686 20.7319C7.61125 20.6246 7.47616 20.6352 7.33417 20.7212C7.20228 20.8011 7.07092 20.764 6.96615 20.6795C6.85872 20.5925 6.82362 20.476 6.88053 20.3366C6.96987 20.1168 7.04592 19.8919 7.12623 19.6686C7.3347 19.0876 7.54158 18.5061 7.74952 17.9251C8.60309 18.2731 9.49602 18.4949 10.4012 18.678C10.4012 18.7116 10.406 18.7462 10.4001 18.7788C10.2156 19.7561 10.5192 20.5691 11.2883 21.232C12.0876 21.9209 13.4804 22.0343 14.3313 21.4721C14.8472 21.2061 15.2009 20.7991 15.4375 20.2944C15.6875 19.7612 15.7008 19.2051 15.5917 18.6394C16.4219 18.557 17.2021 18.2949 17.977 18.0207C18.8741 17.7033 19.6894 17.2398 20.4563 16.6959C20.5217 16.8704 20.5855 17.0454 20.6536 17.2184C21.019 18.1469 21.3854 19.0754 21.7518 20.0039L21.7502 20.0034Z" fill="#A05838"/>
<path d="M7.7478 17.9241C7.54039 18.5051 7.33298 19.0866 7.12451 19.6676C7.04474 19.8909 6.96815 20.1158 6.87881 20.3356C6.8219 20.4755 6.857 20.592 6.96443 20.6785C7.0692 20.7634 7.20056 20.8001 7.33245 20.7202C7.47445 20.6342 7.60953 20.6235 7.74514 20.7309C7.89352 20.8484 7.88023 21.0031 7.8313 21.1496C7.72387 21.4706 7.6074 21.7896 7.48136 22.104C7.41223 22.2755 7.4202 22.4306 7.57549 22.5354C7.72494 22.6362 7.8882 22.6062 8.0403 22.5014C8.23336 22.3686 8.43492 22.2465 8.63435 22.1228C8.90292 21.9565 9.0598 21.9916 9.26296 22.222C9.64162 22.6514 10.0883 23.0132 10.6 23.2848C11.6094 23.8206 12.6772 24.1945 13.8361 24.3191C14.353 24.3751 14.8683 24.4326 15.3879 24.4117C16.3925 24.371 17.3775 24.2154 18.3422 23.9391C19.6595 23.5621 20.8816 22.9887 22.0538 22.3111C22.1314 22.2663 22.2006 22.218 22.2963 22.2343C21.0199 23.5214 19.5021 24.4652 17.787 25.1235C16.0096 25.8057 14.1568 26.0922 12.2523 25.9741C8.84601 25.7635 5.94919 24.4697 3.57355 22.1193C3.53791 22.0842 3.51505 22.0374 3.48633 21.9957C3.74267 21.3312 4.02453 20.6754 4.2447 19.9988C4.70792 18.9095 5.10785 17.7979 5.53543 16.6959C6.22839 17.1777 6.95273 17.6086 7.74727 17.923L7.7478 17.9241Z" fill="#934A2E"/>
<path d="M4.24546 19.9998C4.02525 20.6769 3.74334 21.3322 3.48696 21.9967C2.78964 21.3292 2.22741 20.5635 1.73434 19.7515C0.887018 18.3555 0.3482 16.8521 0.122673 15.2551C-0.186363 13.071 0.0886311 10.951 0.946059 8.90022C1.31892 8.00888 1.81891 7.18673 2.36305 6.38543C2.61836 6.97712 2.88591 7.56372 3.2726 8.0913C3.48696 8.38332 3.71462 8.66365 4.08642 8.7883C3.98642 8.9572 3.88855 9.12662 3.78642 9.294C2.91091 10.7267 2.48166 12.2835 2.39443 13.9313C2.36411 14.5037 2.41518 15.0735 2.48911 15.6438C2.65347 16.9157 3.07314 18.1037 3.71568 19.2219C3.871 19.4921 4.00291 19.7826 4.24599 20.0003L4.24546 19.9998Z" fill="#F55A61"/>
<path d="M4.08476 8.78781C3.71296 8.66316 3.48531 8.38334 3.27095 8.09081C2.88426 7.56323 2.61671 6.97714 2.36139 6.38494C2.10768 5.70473 1.88747 5.01537 1.77949 4.29802C1.7162 3.88033 1.66354 3.45908 1.76034 3.0419C1.84172 2.69034 2.08427 2.42986 2.36459 2.20499C3.19967 1.53546 4.1821 1.131 5.19431 0.782501C5.18048 1.01602 4.94113 1.08623 4.81666 1.23733C4.39167 1.75219 4.20018 2.34693 4.09434 2.97118C4.02572 3.37513 3.97572 3.78926 3.98955 4.19678C4.02625 5.3079 4.17997 6.40428 4.64113 7.43807C4.74592 7.67312 4.85336 7.9219 5.09857 8.07148C5.07782 8.10607 5.05761 8.14067 5.03687 8.17526C4.96985 8.22868 4.90442 8.28465 4.83528 8.33501C4.59964 8.50748 4.39912 8.73388 4.08529 8.78781H4.08476Z" fill="#213159"/>
<path d="M21.7502 20.0033C21.3843 19.0749 21.0173 18.1469 20.6519 17.2179C20.5838 17.0444 20.5199 16.8694 20.4545 16.6954C20.9157 16.3032 20.9965 15.8488 20.7657 15.2999C20.4295 14.5016 20.1322 13.6876 19.8184 12.8807C19.8497 12.8121 19.8731 12.7383 19.9141 12.6752C20.2274 12.1919 20.4444 11.6714 20.5976 11.123C20.8678 10.1558 20.9167 9.16477 20.9646 8.1732C21.2758 8.38739 21.5162 8.70129 21.9167 8.78778C22.3912 9.55855 22.83 10.3451 23.1034 11.2059C23.3412 11.9548 23.4938 12.7154 23.5667 13.4979C23.7135 15.0699 23.4624 16.5789 22.8678 18.0411C22.6055 18.6857 22.2789 19.3018 21.8736 19.8772C21.8385 19.927 21.8098 19.9779 21.7497 20.0033H21.7502Z" fill="#ED1C25"/>
<path d="M22.7185 8.07296C22.0196 7.49755 21.4207 6.84431 20.9505 6.07965C20.1835 4.83065 19.709 3.47837 19.3819 2.07572C19.2468 1.49625 19.1313 0.909141 19.1016 0.311859C20.4138 0.600325 21.6824 1.00886 22.8371 1.67787C24.3472 2.55294 24.4174 2.96045 24.1722 4.5198C24.0738 5.14658 23.8669 5.74895 23.644 6.34471C23.3844 6.94504 23.1313 7.54792 22.7185 8.07296Z" fill="#2D3C6B"/>
<path d="M5.03809 8.17523C5.05883 8.14063 5.07904 8.10603 5.09979 8.07144C5.39021 7.8425 5.63541 7.57082 5.89658 7.31441C6.38433 7.49705 6.89762 7.60796 7.36304 7.85522C8.25451 8.32887 8.94385 8.99026 9.46033 9.82411C9.48214 9.85871 9.48693 9.90297 9.50022 9.94265C9.39384 10.0027 9.28693 10.0612 9.18161 10.1222C8.10398 10.7439 7.51356 12.0316 7.73537 13.2104C7.81303 13.625 8.00983 13.9863 8.17685 14.3638C8.07206 14.3836 7.99015 14.3276 7.90558 14.2849C7.21091 13.9339 6.63752 13.449 6.17689 12.841C5.88115 12.3791 5.63222 11.8968 5.46999 11.3758C5.145 10.3308 5.06309 9.25634 5.03809 8.17472V8.17523Z" fill="#934A2E"/>
<path d="M15.4392 0.364782C15.4732 0.374957 15.5073 0.385641 15.5413 0.395816C15.4759 0.851663 15.6418 1.26121 15.8391 1.65754C16.472 2.93147 17.3367 4.06243 18.227 5.17763C18.8274 5.92957 19.4879 6.63319 20.1224 7.35766C18.8732 7.56727 17.8787 8.19507 17.0655 9.09863C16.8405 9.34894 16.6145 9.61298 16.506 9.94113C16.1492 9.78749 15.7758 9.69235 15.3876 9.64809C15.2483 9.46849 15.0504 9.35809 14.859 9.24006C14.5952 8.44233 14.2729 7.67258 13.7416 6.99593C13.3194 6.45766 12.6876 6.45614 12.2648 6.99186C11.7313 7.66749 11.4107 8.43826 11.1447 9.23497C10.9522 9.35301 10.748 9.4573 10.6135 9.64402C10.4587 9.66589 10.3039 9.68828 10.1497 9.71015C10.1018 8.91395 10.0609 8.11723 10.0875 7.31899C10.5087 7.28847 10.6576 7.07275 10.5273 6.6922C10.4592 6.49328 10.3226 6.34269 10.1742 6.1982C10.3242 5.92907 10.3454 5.6233 10.439 5.33738C10.7645 4.34072 11.2937 3.46108 11.9914 2.6603C12.6753 1.87528 13.5151 1.2897 14.4452 0.812489C14.7159 0.673598 15.009 0.573881 15.2945 0.462463C15.3541 0.43906 15.4099 0.422271 15.4397 0.364273L15.4392 0.364782ZM15.4408 6.91351C15.4323 7.06919 15.4801 7.19893 15.6349 7.27066C15.779 7.33782 15.9317 7.34901 16.0572 7.2442C16.2768 7.06054 16.4677 7.08751 16.6938 7.24929C16.9512 7.43346 17.2851 7.25692 17.299 6.95116C17.3197 6.48259 16.9012 6.08017 16.3741 6.06236C15.8928 6.04608 15.4424 6.45716 15.4413 6.91351H15.4408Z" fill="#B76C4E"/>
<path d="M10.148 9.7107C10.3028 9.68882 10.4576 9.66644 10.6118 9.64456C10.4725 10.1131 10.6289 10.5405 10.8108 10.9648C9.91877 12.1746 10.0932 13.8347 11.1911 14.8476C11.4671 15.102 11.7889 15.2857 12.1017 15.4866C11.5682 15.7619 10.9932 15.772 10.4134 15.711C9.85867 15.6525 9.38102 15.3996 8.91826 15.1203C8.68795 14.8878 8.4321 14.6782 8.2337 14.4172C8.21296 14.3989 8.19275 14.3806 8.172 14.3623L8.17413 14.3638C8.00711 13.9863 7.81031 13.6251 7.73265 13.2104C7.51138 12.0317 8.10126 10.744 9.17889 10.1223C9.28474 10.0612 9.39112 10.0022 9.4975 9.94269C9.71399 9.86536 9.93101 9.78752 10.1475 9.71019L10.148 9.7107Z" fill="#FCAD6D"/>
<path d="M10.1739 6.19873C10.3223 6.34322 10.459 6.49381 10.527 6.69274C10.6574 7.07329 10.5084 7.289 10.0872 7.31953C10.0201 7.27933 9.94939 7.24321 9.88609 7.19844C9.71323 7.07685 9.54089 7.07278 9.37813 7.20658C9.22547 7.33174 9.06271 7.35819 8.89303 7.25949C8.69782 7.14604 8.67335 6.96798 8.72388 6.77058C8.86803 6.20586 9.46163 5.91993 10.027 6.14328C10.0755 6.16261 10.1249 6.18042 10.1739 6.19873Z" fill="#162544"/>
<path d="M16.5059 9.94115C16.6138 9.613 16.8399 9.34895 17.0654 9.09915C17.8787 8.19611 18.8728 7.5683 20.1228 7.35818C20.4042 7.62986 20.685 7.90154 20.9659 8.17321C20.918 9.16478 20.8691 10.1564 20.5989 11.123C20.4457 11.6714 20.2287 12.1919 19.9154 12.6752C19.8744 12.7383 19.851 12.8121 19.8196 12.8808C19.6537 12.9942 19.5537 13.1657 19.418 13.3056C18.9468 13.7904 18.4074 14.1832 17.7548 14.4197C18.0702 13.9329 18.2915 13.4099 18.3026 12.8329C18.3287 11.5198 17.7058 10.5639 16.5064 9.94115H16.5059Z" fill="#A05838"/>
<path d="M17.7541 14.4197C18.4071 14.1831 18.9459 13.7904 19.4171 13.3055C19.5532 13.1656 19.6527 12.9942 19.8186 12.8807C20.1324 13.6876 20.4291 14.5011 20.7658 15.2999C20.9971 15.8488 20.9157 16.3031 20.4547 16.6954C19.6878 17.2393 18.8725 17.7027 17.9753 18.0202C17.2004 18.2944 16.4203 18.5564 15.5901 18.6388C15.5523 18.5539 15.5119 18.4699 15.4774 18.384C15.2513 17.8289 14.8785 17.3949 14.3307 17.1039C13.566 16.6033 12.3912 16.6226 11.5419 17.1599C10.9771 17.517 10.6234 18.0283 10.408 18.6343C10.3756 18.5946 10.3479 18.5503 10.3107 18.5157C9.30398 17.5872 8.9115 16.4293 8.92107 15.1203C9.38375 15.3996 9.86133 15.6529 10.416 15.7109C10.9957 15.772 11.5706 15.7618 12.104 15.4866C12.7348 15.2607 13.3474 15.28 13.9803 15.5227C14.8892 15.8717 15.7922 15.7995 16.6575 15.3548C17.1005 15.1269 17.4419 14.7881 17.7546 14.4197H17.7541Z" fill="#F5F1E5"/>
<path d="M8.9203 15.1203C8.91073 16.4294 9.30327 17.5873 10.3102 18.5158C10.3474 18.5504 10.3756 18.5946 10.4075 18.6343C10.4075 18.6491 10.4048 18.6633 10.4001 18.6771C9.49529 18.4939 8.60222 18.2716 7.74799 17.9241C6.95332 17.6097 6.2294 17.1788 5.5358 16.697C5.06772 16.2961 5.0039 15.8346 5.23634 15.2806C5.57356 14.4767 5.86452 13.6556 6.17568 12.8416C6.63631 13.4496 7.20917 13.9344 7.90436 14.2855C7.98894 14.3282 8.07085 14.3842 8.17564 14.3643L8.17351 14.3628C8.19425 14.3811 8.21446 14.3994 8.23521 14.4177C8.43361 14.6787 8.68945 14.8883 8.91977 15.1208L8.9203 15.1203Z" fill="#D7D2C4"/>
<path d="M10.3993 18.677C10.4041 18.6633 10.4067 18.6485 10.4067 18.6343C10.6227 18.0283 10.9764 17.517 11.5413 17.1599C12.3907 16.6226 13.5657 16.6033 14.3306 17.1039C13.9747 17.2626 13.7301 17.5435 13.4785 17.8162C13.1476 17.7648 12.8248 17.7424 12.4923 17.8498C11.6599 18.1189 11.2253 18.9487 11.5046 19.78C11.7647 20.5538 12.6205 20.9756 13.4471 20.7283C12.879 19.7688 12.7961 18.8128 13.4795 17.8671C14.1423 17.9851 14.5678 18.618 14.5875 19.2102C14.6082 19.8507 14.3253 20.3539 13.7088 20.6469C13.5168 20.7385 13.4966 20.8128 13.6529 20.9552C13.8636 21.1465 14.0561 21.3571 14.3301 21.4716C13.479 22.0338 12.086 21.9203 11.2865 21.2315C10.5168 20.5686 10.2137 19.7556 10.3982 18.7782C10.4046 18.7457 10.3993 18.7111 10.3993 18.6775V18.677Z" fill="#FFC839"/>
<path d="M13.4771 17.8157C13.7287 17.543 13.9734 17.2622 14.3292 17.1034C14.8771 17.3944 15.2499 17.8284 15.476 18.3835C15.5111 18.4695 15.551 18.5534 15.5888 18.6384C15.6973 19.2036 15.684 19.7602 15.4345 20.2934C15.1983 20.798 14.8441 21.205 14.3281 21.4711C14.0542 21.3567 13.8617 21.146 13.651 20.9547C13.4946 20.8128 13.5149 20.738 13.7069 20.6464C14.3234 20.3534 14.6063 19.8502 14.5856 19.2097C14.5664 18.6175 14.1409 17.9846 13.4776 17.8666C13.4776 17.8498 13.4771 17.8325 13.4766 17.8157H13.4771Z" fill="#FFDD40"/>
<path d="M6.17602 12.8416C5.86539 13.6556 5.57391 14.4767 5.23668 15.2806C5.00424 15.8346 5.06807 16.296 5.53614 16.6969C5.10849 17.7989 4.70797 18.9105 4.24522 19.9998C4.00214 19.782 3.87022 19.4915 3.71491 19.2214C3.07237 18.1037 2.65323 16.9157 2.48834 15.6433C2.4144 15.0725 2.36334 14.5027 2.39366 13.9308C2.48142 12.2835 2.91014 10.7267 3.78565 9.2935C3.88778 9.12612 3.98565 8.95619 4.08564 8.78779C4.39947 8.73386 4.59999 8.50747 4.83563 8.335C4.90478 8.28412 4.9702 8.22867 5.03722 8.17525C5.06222 9.25687 5.14413 10.3314 5.46913 11.3764C5.63136 11.8978 5.88082 12.3796 6.17602 12.8416Z" fill="#ED1C25"/>
<path d="M17.7529 14.4197C17.4402 14.7886 17.0988 15.1274 16.6558 15.3548C15.7905 15.7995 14.8875 15.8717 13.9786 15.5227C13.3457 15.2795 12.7325 15.2602 12.1023 15.4866C11.7896 15.2856 11.4679 15.102 11.1919 14.8476C10.0942 13.8347 9.91975 12.1746 10.8116 10.9647C10.8526 11.0294 10.893 11.094 10.935 11.1581C11.6109 12.1878 13.0559 12.5597 14.1142 11.9767C15.0428 11.5162 15.5975 10.5018 15.3863 9.64859C15.7746 9.69285 16.1479 9.78799 16.5047 9.94164C17.704 10.5644 18.3268 11.5203 18.3007 12.8334C18.2895 13.4103 18.0678 13.9328 17.7529 14.4202V14.4197Z" fill="#F9BA8F"/>
<path d="M14.1151 11.9767C13.0567 12.5597 11.6115 12.1878 10.9354 11.1581C10.8934 11.094 10.853 11.0294 10.812 10.9648C10.6301 10.5405 10.4737 10.1131 10.6131 9.64455C10.7477 9.45783 10.9519 9.35354 11.1445 9.2355C11.5695 9.07219 12.0152 8.98469 12.4678 8.9506C13.0178 8.90888 13.5705 8.91193 14.1125 9.04269C13.8439 9.11645 13.5742 9.18819 13.3263 9.31334C13.0529 9.45122 12.8391 9.6649 12.8567 9.96455C12.8918 10.5669 13.1077 11.1067 13.5731 11.5442C13.7433 11.704 13.9465 11.819 14.1151 11.9762V11.9767Z" fill="#2D3C6B"/>
<path d="M14.1126 9.04215C13.5705 8.9114 13.0184 8.90834 12.4679 8.95006C12.0153 8.98415 11.5695 9.07166 11.1445 9.23497C11.4105 8.43825 11.7312 7.66748 12.2647 6.99185C12.6876 6.45613 13.319 6.45766 13.7418 6.99592C14.2732 7.67257 14.5955 8.44232 14.8593 9.24005C14.6099 9.17595 14.3711 9.0742 14.112 9.04215H14.1126Z" fill="#934A2E"/>
<path d="M14.1108 9.04216C14.3698 9.0737 14.6081 9.17596 14.8581 9.24007C15.0496 9.3581 15.2475 9.4685 15.3868 9.64809C15.5975 10.5013 15.0432 11.5162 14.114 11.9767C13.9454 11.8195 13.7422 11.7045 13.572 11.5447C13.106 11.1067 12.8906 10.5669 12.8555 9.96505C12.8379 9.66539 13.0518 9.45171 13.3252 9.31384C13.573 9.18868 13.8427 9.11644 14.1113 9.04318L14.1108 9.04216Z" fill="#3C5082"/>
<path d="M15.4399 6.91355C15.441 6.4572 15.8915 6.04612 16.3729 6.0624C16.9005 6.08072 17.3186 6.48264 17.2979 6.9512C17.2846 7.25697 16.95 7.43351 16.6926 7.24934C16.4665 7.08755 16.2761 7.06059 16.0559 7.24425C15.9304 7.34905 15.7777 7.33735 15.6336 7.2707C15.4793 7.19897 15.4309 7.06873 15.4394 6.91355H15.4399Z" fill="#162544"/>
<path d="M13.4783 17.8157C13.4783 17.8325 13.4788 17.8498 13.4793 17.8666C12.7958 18.8124 12.8788 19.7683 13.4469 20.7278C12.6203 20.9751 11.7645 20.5533 11.5044 19.7795C11.2251 18.9487 11.6597 18.1184 12.4921 17.8493C12.8246 17.7419 13.1474 17.7643 13.4783 17.8157Z" fill="#FFB332"/>
</svg>
