<svg width="81" height="81" viewBox="0 0 81 81" fill="none" xmlns="http://www.w3.org/2000/svg">
<path d="M43.5059 81.0002H37.3359C36.846 80.6799 36.2593 80.859 35.7407 80.6878C36.2783 79.573 36.7461 78.4519 36.7445 77.169C36.7302 69.1373 36.7603 61.1056 36.727 53.0739C36.7128 49.5615 34.1788 46.842 30.6824 46.7437C26.5262 46.6263 22.3638 46.7262 18.2045 46.731C14.9173 46.7199 11.6302 46.7548 8.34461 46.6818C6.15159 46.6327 4.04578 46.7817 2.2032 48.1375C1.97962 46.9197 1.87813 45.6891 1.80836 44.4554C1.63552 41.4283 1.76713 38.417 2.37446 35.4358C3.467 36.0733 4.56431 36.7028 5.88519 36.7028C9.72417 36.7028 13.5647 36.7012 17.4037 36.6996C21.9356 36.7028 26.4676 36.706 30.9995 36.7044C31.2088 36.7044 31.4197 36.6695 31.6243 36.6267C34.6498 35.994 36.7064 33.5425 36.7175 30.4455C36.7413 23.0671 36.7254 15.6887 36.7286 8.30874C36.7286 6.75789 36.8206 5.19912 36.2545 3.70695C40.5613 3.24392 44.8426 3.42786 49.0543 4.43797C60.1938 7.10834 68.6218 13.4338 74.335 23.3668C73.4391 23.37 72.5448 23.3748 71.6505 23.3779C68.0715 23.3906 64.491 23.4033 60.9121 23.416C57.3792 23.4065 53.8462 23.3541 50.3149 23.4001C47.042 23.4429 44.3051 26.1545 44.2892 29.4275C44.248 37.6273 44.2464 45.8271 44.2892 54.0269C44.3067 57.257 46.9881 60.0083 50.2245 60.0796C54.1507 60.1669 58.0801 60.0907 62.0078 60.086C62.3757 60.0939 62.742 60.1082 63.1099 60.1082C67.0202 60.1161 70.9321 60.1225 74.8425 60.1304C74.5206 60.7314 74.2288 61.3514 73.872 61.9318C67.5023 72.2882 58.3544 78.5375 46.3395 80.5562C45.396 80.7147 44.4208 80.6719 43.5043 80.9986L43.5059 81.0002Z" fill="#ED1C25"/>
<path d="M81.0003 55.0554C80.8322 55.1331 80.8242 55.3044 80.7767 55.4471C79.8379 58.3252 77.8289 59.8459 74.8446 60.1314C70.9342 60.125 67.0223 60.1187 63.112 60.1091C62.7441 60.1091 62.3778 60.0949 62.0115 60.087C60.6431 59.0166 60.5321 57.9256 61.6484 56.5872C61.7451 56.4715 61.799 56.3193 61.8736 56.1845C61.918 56.167 61.9639 56.1496 62.0099 56.1337C66.2517 56.1417 70.495 56.1654 74.7368 56.1496C76.0275 56.1448 77.0376 55.1093 77.0392 53.8138C77.0471 47.6992 77.0328 41.5862 77.0265 35.4717C77.0328 33.6528 77.0455 31.834 77.0455 30.0152C77.0455 28.2376 76.1528 27.3543 74.3657 27.3527C70.0415 27.3464 65.7189 27.3432 61.3947 27.3385C60.2847 26.1476 59.9279 24.8631 60.9158 23.4154C64.4947 23.4027 68.0752 23.39 71.6542 23.3773C72.5485 23.3741 73.4444 23.371 74.3387 23.3662C77.9922 23.5105 79.608 24.8251 81.0003 28.791V55.0523V55.0554Z" fill="#A57447"/>
<path d="M16.9132 0.0285127C21.5498 0.0237555 26.1863 -0.0396737 30.8213 0.0396128C32.924 0.0744989 34.5683 1.16072 35.7402 2.91771C35.9146 3.17936 36.0843 3.44576 36.2555 3.70899C36.82 5.20116 36.7297 6.75993 36.7297 8.31078C36.7249 15.6892 36.7408 23.0676 36.7186 30.4476C36.709 33.5445 34.6508 35.9976 31.6253 36.6287C31.4207 36.6716 31.2083 36.7064 31.0005 36.7064C26.4686 36.708 21.9367 36.7048 17.4047 36.7017C16.4898 35.3142 16.558 34.5292 17.6902 33.3082C17.8297 33.1576 17.9455 32.9847 18.0723 32.8214C18.3863 32.8087 18.7018 32.7881 19.0174 32.7865C22.7581 32.7833 26.4971 32.7913 30.2378 32.7802C31.7141 32.7754 32.7591 31.8842 32.7654 30.53C32.786 25.2892 32.7607 20.0483 32.7543 14.8075C32.7607 12.1213 32.7702 9.43506 32.7702 6.74725C32.7702 4.82534 31.8949 3.95954 29.9698 3.95478C25.782 3.94685 21.5942 3.93734 17.4063 3.92782C16.0426 2.43882 15.9332 1.56508 16.9148 0.026927L16.9132 0.0285127Z" fill="#3F57A0"/>
<path d="M16.9129 0.0292779C15.9314 1.56744 16.0408 2.44117 17.4045 3.93017L17.3934 3.97933C13.8462 3.9714 10.299 3.96189 6.75176 3.95872C4.81404 3.95713 3.85945 4.99103 3.99106 6.9272C3.97996 7.24276 3.95776 7.55674 3.95776 7.8723C3.95617 14.3199 3.95776 20.769 3.95776 27.2166C3.95776 28.2965 3.93715 29.3748 3.96569 30.4531C3.99899 31.7328 4.93931 32.7556 6.19677 32.7635C10.1436 32.7889 14.0904 32.7603 18.0388 32.7524L18.0768 32.8206C17.95 32.9839 17.8342 33.1567 17.6947 33.3074C16.5609 34.5284 16.4927 35.3133 17.4092 36.7009C13.5703 36.7009 9.7297 36.704 5.89073 36.704C4.56984 36.704 3.47254 36.0745 2.37999 35.437C1.23195 34.308 0.305897 33.0521 0.0965848 31.3982C0.0394997 30.9558 0.0109571 30.507 0.0109571 30.0614C-0.0001428 22.2644 -0.0017285 14.4673 0.0014429 6.66873C0.00461429 2.7155 2.70189 0.00549198 6.64076 0.00390625C10.0643 0.00390625 13.4894 0.0197635 16.9129 0.0292779Z" fill="#2A428B"/>
<path d="M60.9145 23.4161C59.9266 24.8639 60.2834 26.1467 61.3934 27.3392L61.3918 27.3788C57.7336 27.3725 54.0754 27.3487 50.4172 27.3662C49.2375 27.3709 48.2638 28.3636 48.2496 29.5497C48.2258 31.5224 48.2543 33.4966 48.2622 35.4708C48.248 35.7325 48.221 35.9957 48.221 36.2573C48.2194 41.9707 48.2163 47.6825 48.221 53.3959C48.221 55.2576 49.1217 56.1519 50.977 56.1567C54.6098 56.1662 58.2426 56.1741 61.8739 56.1836C61.7994 56.3184 61.7454 56.4706 61.6487 56.5864C60.5324 57.9232 60.6434 59.0157 62.0118 60.0861C58.0841 60.0909 54.1547 60.1654 50.2285 60.0798C46.9921 60.0084 44.3091 57.2572 44.2932 54.027C44.2504 45.8272 44.252 37.6274 44.2932 29.4276C44.3107 26.1547 47.046 23.4431 50.3189 23.4002C53.8502 23.3543 57.3816 23.4066 60.9145 23.4161Z" fill="#895F38"/>
<path d="M35.7409 80.6877C34.1885 80.5276 32.6646 80.2152 31.1503 79.8457C30.9838 79.8045 30.8426 79.6649 30.6904 79.5698C31.8242 79.167 32.7502 78.5565 32.7566 77.1991C32.7708 74.1942 32.7518 71.1892 32.7455 68.1843C32.7486 66.1688 32.7518 64.1518 32.7566 62.1363C32.755 60.4618 32.7534 58.7872 32.7518 57.1127C32.7613 55.8013 32.7851 54.4899 32.7756 53.1785C32.7629 51.6737 31.8448 50.6889 30.3431 50.662C28.4038 50.6271 26.4613 50.6715 24.5205 50.6826C22.7445 50.6746 20.9669 50.6683 19.1909 50.6604C19.0736 50.6382 18.9578 50.616 18.8405 50.5922C17.5497 49.4822 17.4181 48.1819 18.2046 46.7309C22.3639 46.7262 26.5264 46.6263 30.6825 46.7436C34.1789 46.8419 36.7129 49.5615 36.7272 53.0739C36.7605 61.1056 36.7303 69.1373 36.7446 77.169C36.7462 78.4519 36.2784 79.573 35.7409 80.6877Z" fill="#E9F6F9"/>
<path d="M18.2054 46.7324C17.4205 48.1833 17.5505 49.4836 18.8412 50.5936C18.5003 50.6111 18.1594 50.6412 17.8169 50.6412C14.127 50.6444 10.437 50.638 6.74713 50.6459C4.8982 50.6507 3.96581 51.5926 3.95471 53.4178C3.95154 53.865 3.92617 54.3122 3.9119 54.7593C3.10319 52.9976 2.76544 51.1042 2.38011 49.2251C2.30559 48.8652 2.26119 48.5005 2.2041 48.1373C4.0451 46.7815 6.15249 46.6325 8.34551 46.6816C11.6311 46.7562 14.9182 46.7197 18.2054 46.7308V46.7324Z" fill="#B8E3F2"/>
<path d="M3.91174 54.7602C3.92601 54.313 3.95138 53.8658 3.95456 53.4187C3.96566 51.5919 4.89805 50.65 6.74697 50.6468C10.4369 50.6389 14.1268 50.6468 17.8167 50.6421C18.1577 50.6421 18.4986 50.6103 18.8411 50.5945C18.9584 50.6167 19.0742 50.6389 19.19 50.6627C17.8167 54.0101 18.183 57.1626 20.2508 60.1247C20.0589 60.3404 19.8607 60.5513 19.6783 60.7749C18.4367 62.2877 17.7612 63.9606 18.2243 65.9554C18.4034 66.7229 18.876 67.3652 19.1614 68.1263C19.0314 68.1263 18.9521 68.1438 18.8823 68.1231C16.9272 67.5761 15.1385 67.9868 13.4687 69.0682C13.2642 69.2014 13.0596 69.3045 12.8123 69.3029C9.49182 66.0205 6.96263 62.1941 5.06613 57.9443C4.60628 56.9136 4.09093 55.8972 3.91016 54.7634L3.91174 54.7602Z" fill="#52A4F7"/>
<path d="M12.8135 69.3003C13.0608 69.3034 13.2654 69.1988 13.47 69.0656C15.1397 67.9857 16.9268 67.5734 18.8835 68.1205C18.9533 68.1395 19.0326 68.1237 19.1626 68.1237C18.8772 67.3625 18.4031 66.7187 18.2255 65.9528C17.7609 63.9579 18.438 62.285 19.6796 60.7722C19.8619 60.5486 20.0617 60.3393 20.252 60.1221C21.3921 61.4604 22.7273 62.5308 24.4033 63.1286C27.3543 64.1831 30.1245 63.7407 32.76 62.1359C32.7568 64.1514 32.7536 66.1685 32.7489 68.1839C31.9196 68.3837 31.1521 68.7278 30.4861 69.2575C27.6889 71.4838 24.2575 71.644 21.4317 69.3494C21.0274 69.0212 20.558 68.777 20.0807 68.5423C19.5083 68.26 19.2403 68.4329 18.9771 68.9593C18.1938 70.5213 18.0495 72.1704 18.1953 73.8735C16.2211 72.5621 14.4325 71.0287 12.8151 69.2971L12.8135 69.3003Z" fill="#56BCF4"/>
<path d="M18.1935 73.8764C18.046 72.1733 18.1935 70.5241 18.9752 68.9622C19.24 68.4341 19.5064 68.2629 20.0789 68.5451C20.5546 68.7798 21.0239 69.0224 21.4299 69.3523C24.2556 71.6468 27.6871 71.4851 30.4842 69.2603C31.1518 68.7291 31.9177 68.3866 32.747 68.1868C32.7534 71.1917 32.7724 74.1967 32.7581 77.2016C32.7518 78.559 31.8257 79.1695 30.6919 79.5723C28.8985 79.4534 27.3001 78.6859 25.6732 78.0357C23.0061 76.9685 20.4991 75.6016 18.1935 73.878V73.8764Z" fill="#87D5F6"/>
<path d="M77.025 35.4729C77.0314 41.5875 77.0456 47.7005 77.0377 53.815C77.0361 55.1122 76.026 56.1461 74.7353 56.1508C70.4935 56.1651 66.2502 56.1429 62.0085 56.135C60.6146 55.1169 59.9169 53.7548 59.9566 52.02C59.9629 51.7108 60.0216 51.3857 59.8281 51.1003C60.973 50.2012 61.4011 49.0071 61.3631 47.5752C61.3219 46.0275 61.3758 44.4767 61.3456 42.929C61.3298 42.1314 61.5106 41.4273 62.0227 40.8136C62.8727 40.1254 63.8146 39.9098 64.8104 40.4125C65.8411 40.931 66.2153 41.846 66.1677 42.9686C66.1487 43.4158 66.1424 43.8662 66.1773 44.3102C66.3009 45.8769 67.4442 46.9346 68.9221 46.8727C70.3524 46.814 71.3577 45.6945 71.3673 44.1278C71.3768 42.3899 71.3562 40.6535 71.3752 38.9155C71.3974 36.8985 72.7928 35.5078 74.8162 35.4681C75.5535 35.4539 76.2909 35.4681 77.0266 35.4713L77.025 35.4729Z" fill="#56BCF4"/>
<path d="M77.0248 35.4727C76.2874 35.4711 75.5501 35.4552 74.8143 35.4695C72.791 35.5092 71.3955 36.8998 71.3733 38.9169C71.3543 40.6533 71.3765 42.3912 71.3654 44.1292C71.3559 45.6959 70.3506 46.8154 68.9203 46.8741C67.444 46.9343 66.3007 45.8767 66.1754 44.3115C66.1405 43.866 66.1469 43.4156 66.1659 42.97C66.2135 41.8473 65.8393 40.9324 64.8086 40.4138C63.8111 39.9111 62.8708 40.1268 62.0209 40.815C61.5325 40.2679 60.9759 39.7668 60.5652 39.1674C58.7591 36.5304 58.8479 33.7046 59.8184 30.8059C60.2195 29.6071 60.8554 28.5177 61.3898 27.3807L61.3914 27.3411C65.7156 27.3458 70.0382 27.349 74.3624 27.3553C76.1495 27.3585 77.0406 28.2402 77.0422 30.0178C77.0422 31.8366 77.0311 33.6554 77.0232 35.4743L77.0248 35.4727Z" fill="#FBF071"/>
<path d="M59.8266 51.1C60.02 51.3854 59.9613 51.7105 59.955 52.0197C59.9169 53.7545 60.6131 55.1182 62.0069 56.1347C61.9609 56.1505 61.9165 56.168 61.8705 56.1854C58.2377 56.1759 54.6048 56.168 50.9736 56.1585C49.1183 56.1537 48.2192 55.2593 48.2177 53.3977C48.2145 47.6843 48.2161 41.9725 48.2177 36.2591C48.2177 35.9975 48.2446 35.7343 48.2589 35.4726C49.1278 35.4726 49.9984 35.4678 50.8674 35.4758C53.0429 35.4964 54.4146 36.8728 54.4177 39.0468C54.4225 41.9202 54.5192 44.7967 54.3908 47.6637C54.2671 50.4023 56.8359 52.7317 59.825 51.1H59.8266Z" fill="#52A4F7"/>
<path d="M17.4045 3.92993C21.5924 3.93945 25.7802 3.94896 29.968 3.95689C31.8931 3.96165 32.7684 4.82745 32.7684 6.74936C32.7684 9.43559 32.7573 12.1218 32.7525 14.8096C30.6372 16.6094 28.4727 18.3553 26.4224 20.2249C24.7336 21.7646 22.899 22.3117 20.7139 21.5997H20.7297C20.7202 18.4949 20.7107 15.3916 20.7028 12.2883C20.698 10.3204 19.9829 9.56561 18.0341 9.47364C17.0049 8.5 16.3675 7.38999 16.6704 5.89465C16.8099 5.20961 17.2238 4.64351 17.3934 3.98067L17.4045 3.93152V3.92993Z" fill="#EB7FA4"/>
<path d="M20.7161 21.5987C22.9012 22.3091 24.7343 21.7636 26.4247 20.2239C28.4765 18.3543 30.6394 16.6084 32.7548 14.8086C32.7627 20.0494 32.7865 25.2903 32.7659 30.5295C32.7611 31.8853 31.7145 32.7749 30.2383 32.7797C26.4976 32.7908 22.7585 32.7828 19.0179 32.786C18.7023 32.786 18.3883 32.8082 18.0728 32.8209L18.0363 32.7527C17.2974 32.0027 16.9057 31.14 17.1198 30.0586C17.2609 29.3418 17.7366 28.8011 18.049 28.1763C20.0375 28.0019 20.6908 27.293 20.6971 25.3109C20.7003 24.074 20.7082 22.8371 20.7146 21.6003L20.7161 21.5987Z" fill="#FBF071"/>
<path d="M20.7161 21.5988C20.7098 22.8356 20.7018 24.0725 20.6987 25.3094C20.6923 27.2915 20.039 28.0003 18.0505 28.1748C16.051 28.1637 14.0498 28.151 12.0503 28.1431C10.1712 28.1351 9.34981 27.3232 9.34822 25.4473C9.34505 21.4989 9.28955 17.5488 9.37835 13.6019C9.41006 12.2319 9.10878 11.2376 7.97342 10.3877C6.56849 9.33631 5.39508 7.9932 3.99173 6.92283C3.85853 4.98666 4.81471 3.95276 6.75243 3.95435C10.2996 3.95752 13.8468 3.96703 17.3941 3.97496C17.2228 4.63938 16.8089 5.2039 16.671 5.88894C16.3681 7.38428 17.004 8.49429 18.0347 9.46793C15.9542 9.47586 13.8754 9.48854 11.7965 9.48537C11.2542 9.48537 10.7484 9.57893 10.2996 9.8929C9.25942 10.6223 9.21027 11.5484 10.1411 12.3841C12.1993 14.2283 14.2258 16.109 16.3094 17.9246C17.7524 19.1821 19.0194 20.66 20.7304 21.5956H20.7145L20.7161 21.5988Z" fill="#E95094"/>
<path d="M3.99099 6.9248C5.39433 7.99359 6.56775 9.3367 7.97268 10.3896C9.10804 11.2396 9.40932 12.2322 9.37761 13.6039C9.28722 17.5508 9.34431 21.5008 9.34748 25.4493C9.34748 27.3236 10.1689 28.1355 12.0495 28.145C14.0491 28.1546 16.0502 28.1672 18.0498 28.1768C17.7358 28.8015 17.2617 29.3438 17.1206 30.059C16.9065 31.1405 17.2982 32.0031 18.0371 32.7532C14.0903 32.7611 10.1435 32.7896 6.1967 32.7643C4.93924 32.7563 3.99892 31.732 3.96562 30.4539C3.93866 29.3756 3.95769 28.2957 3.95769 27.2174C3.95769 20.7698 3.95769 14.3206 3.95769 7.87307C3.95769 7.55751 3.97989 7.24354 3.99099 6.92798V6.9248Z" fill="#F4C35B"/>
<path d="M59.8264 51.1001C56.8373 52.7303 54.2685 50.4024 54.3922 47.6638C54.5222 44.7968 54.4255 41.9203 54.4191 39.047C54.4144 36.873 53.0443 35.4965 50.8687 35.4759C49.9998 35.468 49.1292 35.4728 48.2603 35.4728C48.2539 33.4985 48.2254 31.5243 48.2476 29.5516C48.2618 28.3655 49.2339 27.3728 50.4152 27.3681C54.0734 27.3506 57.7316 27.3728 61.3898 27.3808C60.8555 28.5177 60.2196 29.6071 59.8184 30.806C58.848 33.7047 58.7592 36.5304 60.5653 39.1675C60.976 39.7669 61.531 40.268 62.021 40.8151C61.5088 41.4288 61.328 42.1328 61.3439 42.9304C61.3756 44.4781 61.3217 46.029 61.3613 47.5766C61.3994 49.0085 60.9696 50.2026 59.8264 51.1017V51.1001Z" fill="#F4C35B"/>
<path d="M32.7588 62.1366C30.1249 63.7413 27.3531 64.1837 24.4021 63.1292C22.7261 62.5298 21.3925 61.4595 20.2508 60.1227C18.1846 57.1605 17.8167 54.0081 19.1899 50.6606C20.9659 50.6686 22.7435 50.6749 24.5195 50.6828C23.8154 51.6517 23.4253 52.757 23.4428 53.9304C23.4951 57.4571 27.0249 59.8626 30.3612 58.7384C31.3301 58.4117 32.0182 57.7457 32.7524 57.113C32.754 58.7875 32.7556 60.462 32.7572 62.1366H32.7588Z" fill="#FAEF72"/>
<path d="M32.7526 57.1133C32.0184 57.746 31.3302 58.4136 30.3613 58.7387C27.025 59.8614 23.4969 57.4574 23.4429 53.9307C23.4255 52.7573 23.8156 51.6505 24.5196 50.6832C26.4605 50.6721 28.4014 50.6277 30.3423 50.6625C31.844 50.6895 32.7621 51.6742 32.7748 53.1791C32.7859 54.4905 32.7605 55.8019 32.751 57.1133H32.7526Z" fill="#F4C35B"/>
<path d="M20.7293 21.5993C19.0167 20.6638 17.7514 19.1859 16.3084 17.9284C14.2248 16.1127 12.1982 14.232 10.14 12.3878C9.2092 11.5537 9.25677 10.6261 10.2986 9.89666C10.7457 9.58268 11.2516 9.48912 11.7955 9.48912C13.8743 9.49229 15.9548 9.47961 18.0336 9.47168C19.9824 9.56365 20.6976 10.3185 20.7023 12.2864C20.7103 15.3896 20.7214 18.4945 20.7293 21.5978V21.5993Z" fill="#FAEF72"/>
</svg>
