<svg width="83" height="83" viewBox="0 0 83 83" fill="none" xmlns="http://www.w3.org/2000/svg">
<path d="M44.6624 82.9979H38.196C38.0674 82.8072 37.8591 82.8506 37.673 82.8311C35.9223 82.6469 34.1827 82.4 32.4631 82.0166C28.0841 81.0419 23.9468 79.4801 20.1263 77.1538C20.1263 74.0671 20.1308 70.9805 20.1308 67.8938C20.4189 68.1017 20.7047 68.314 20.9928 68.5176C22.8011 69.8 25.4825 69.9104 27.406 68.7776C29.5423 67.5212 30.5927 65.2902 30.2315 62.771C29.9368 60.7198 28.1418 58.7508 26.0343 58.2093C23.7961 57.6331 21.846 58.2093 20.1308 59.6714C20.1308 43.6879 20.1285 27.7023 20.1308 11.7188C20.1308 11.4026 20.0599 11.0625 20.3479 10.8069C20.5673 10.8329 20.7889 10.8459 21.0039 10.8892C32.3412 13.1722 43.6784 15.4596 55.0157 17.7427C58.4151 18.4271 61.819 19.0921 65.2206 19.7679C69.1253 21.0113 70.3729 24.0264 70.3596 27.1759C70.2976 41.6106 70.333 56.0454 70.333 70.4801C70.333 70.831 70.3552 71.1797 70.3663 71.5307C70.2976 71.6151 70.24 71.7083 70.1602 71.7819C63.8312 77.5913 56.4008 81.2065 47.8114 82.5321C46.7632 82.6946 45.6818 82.6578 44.6624 83V82.9979ZM54.0407 37.6337C54.167 36.7911 54.0119 35.9572 53.8811 35.1406C52.618 27.2756 45.1964 22.3586 37.7528 23.303C31.2088 24.1326 25.6554 29.6907 25.2897 36.1803C24.9728 41.8402 27.2709 46.3154 32.2038 49.2807C36.4165 51.8129 40.9173 52.0966 45.4934 50.0952C45.7859 50.2446 46.074 50.4027 46.3732 50.5414C49.1609 51.8302 51.8712 51.6634 54.3376 49.8656C56.8262 48.0504 57.8057 45.5464 57.2894 42.5291C56.9326 40.4431 55.7227 38.8857 54.0407 37.6337ZM48.9748 62.9032C53.4224 62.9032 57.8678 62.8988 62.3154 62.9075C62.9204 62.9075 63.4832 62.849 63.8489 62.3075C64.199 61.7876 64.4007 61.2266 64.0528 60.6353C63.6871 60.0136 63.1663 59.6432 62.3774 59.6454C59.0644 59.6606 55.7492 59.6519 52.434 59.6519C46.8829 59.6519 41.3317 59.6562 35.7805 59.6476C35.1157 59.6476 34.4952 59.7299 34.0785 60.2844C33.6774 60.8216 33.5932 61.4064 33.9234 62.0346C34.2536 62.6649 34.7589 62.9097 35.4658 62.9075C39.9666 62.8967 44.4696 62.9032 48.9704 62.9032H48.9748ZM48.9792 69.5465C53.3958 69.5465 57.8124 69.5444 62.2312 69.5509C62.8982 69.5509 63.5032 69.4361 63.9021 68.8599C64.2677 68.3314 64.3386 67.7725 64.0217 67.179C63.6694 66.5205 63.091 66.2974 62.3819 66.2974C59.4545 66.2974 56.5293 66.2974 53.6019 66.2974C47.6673 66.2974 41.7305 66.2996 35.796 66.2931C35.1046 66.2931 34.4641 66.3775 34.0431 66.9841C33.6752 67.5147 33.6065 68.0736 33.9234 68.6649C34.2935 69.3559 34.9074 69.5509 35.6453 69.5487C40.0907 69.5465 44.5338 69.5487 48.9792 69.5487V69.5465ZM40.5272 76.1899C42.2114 76.1899 43.8956 76.205 45.5798 76.1834C46.5128 76.1726 47.3083 75.3754 47.2906 74.5415C47.2729 73.701 46.4685 72.9451 45.551 72.9429C42.1826 72.9364 38.8142 72.9429 35.4458 72.9364C34.8852 72.9364 34.4065 73.0729 34.0852 73.5494C33.7151 74.1018 33.5844 74.6715 33.9212 75.3039C34.2558 75.9299 34.7965 76.1834 35.4747 76.1877C37.1588 76.1985 38.843 76.192 40.5272 76.1899ZM52.4163 72.9408C51.4346 72.9256 50.659 73.5992 50.6457 74.4852C50.6324 75.3516 51.4213 76.1617 52.3055 76.1877C53.203 76.2159 54.0518 75.4621 54.085 74.6108C54.1182 73.779 53.2939 72.9559 52.4163 72.9408Z" fill="white"/>
<path d="M65.2492 9.08664C75.1395 16.0224 81.1206 25.3452 82.6297 37.1655C84.3028 50.2659 80.2497 61.6031 70.8603 71.1014C70.7074 71.2551 70.5323 71.3873 70.3683 71.5281C70.3572 71.1772 70.3351 70.8284 70.3351 70.4775C70.3351 56.0428 70.2996 41.6081 70.3617 27.1734C70.375 24.0239 69.1273 21.0087 65.2227 19.7654C65.2315 16.2044 65.2426 12.6455 65.2515 9.08447L65.2492 9.08664Z" fill="#ED1C25"/>
<path d="M65.2489 9.08691C65.24 12.6479 65.2289 16.2068 65.2201 19.7678C61.8184 19.0942 58.4146 18.427 55.0152 17.7425C43.6779 15.4617 32.3406 13.1721 21.0033 10.8891C20.7884 10.8458 20.5668 10.8328 20.3474 10.8068C20.0083 10.7158 19.6715 10.6075 19.328 10.536C17.2494 10.0941 15.1707 9.66092 13.0898 9.22337C14.9713 8.84864 16.8527 8.47824 18.7341 8.09484C19.1352 8.01253 19.5275 7.89123 19.9241 7.78726C20.2521 7.75694 20.5867 7.75044 20.908 7.68979C27.9218 6.36848 34.94 5.05368 41.9472 3.70204C44.0812 3.29049 46.2397 2.9959 48.3382 2.41973C50.5853 2.1598 52.777 1.62045 54.9997 1.23055C57.0606 0.868818 59.1082 0.442101 61.1647 0.0630376C63.2855 -0.329022 65.178 1.15257 65.2179 3.26016C65.2533 5.20097 65.24 7.14394 65.2467 9.08691H65.2489Z" fill="#B7B5AE"/>
<path d="M45.4932 50.0944C40.9171 52.0958 36.4163 51.8121 32.2036 49.28C27.2707 46.3146 24.9726 41.8395 25.2895 36.1795C25.653 29.69 31.2086 24.1318 37.7526 23.3022C45.1963 22.3578 52.6178 27.2748 53.8809 35.1398C54.0117 35.9564 54.169 36.7904 54.0405 37.633C53.7679 37.503 53.4931 37.3774 53.2228 37.2452C48.1414 34.7629 42.1448 38.3846 42.1913 43.9427C42.2135 46.5204 43.45 48.5283 45.4954 50.0944H45.4932Z" fill="#DA0635"/>
<path d="M13.0902 9.22511C15.1689 9.66049 17.2497 10.0959 19.3284 10.5378C19.6719 10.6114 20.0087 10.7175 20.3478 10.8085C20.0597 11.0641 20.1306 11.4042 20.1306 11.7204C20.1306 27.7039 20.1306 43.6895 20.1306 59.673C19.4902 60.5156 18.8807 61.3625 18.6303 62.4239C18.1362 64.5207 18.7987 66.2904 20.1306 67.8954C20.1306 70.9821 20.1262 74.0688 20.1262 77.1554C17.3539 75.624 14.8498 73.7503 12.6426 71.5041C12.6514 71.2355 12.6692 70.9648 12.6692 70.6962C12.6692 51.834 12.6692 32.974 12.6692 14.1118C12.6692 13.8432 12.6514 13.5724 12.6426 13.3038C12.6514 12.1363 12.6603 10.9688 12.6692 9.80129C12.6714 9.51537 12.6027 9.17529 13.0902 9.22511Z" fill="#D8D5CA"/>
<path d="M45.4929 50.0948C43.4475 48.5287 42.2109 46.5208 42.1887 43.9431C42.1422 38.385 48.1388 34.7633 53.2202 37.2456C53.4906 37.3778 53.7654 37.5034 54.0379 37.6334C55.7177 38.8853 56.9277 40.4428 57.2844 42.5287C57.8008 45.546 56.8213 48.05 54.3327 49.8652C51.8684 51.663 49.1582 51.8298 46.3682 50.541C46.069 50.4024 45.781 50.2442 45.4884 50.0948H45.4929Z" fill="#FF97A4"/>
<path d="M20.1333 67.8931C18.8015 66.288 18.1367 64.5183 18.6331 62.4215C18.8835 61.3623 19.4929 60.5132 20.1333 59.6706C21.8486 58.2107 23.7987 57.6345 26.0369 58.2107C28.1444 58.7522 29.9416 60.7212 30.2341 62.7724C30.5953 65.2916 29.5449 67.5227 27.4086 68.779C25.4851 69.9097 22.8037 69.8014 20.9954 68.519C20.7051 68.3133 20.4192 68.1032 20.1333 67.8952V67.8931Z" fill="#4570D8"/>
<path d="M48.9742 62.9028C44.4735 62.9028 39.9705 62.8985 35.4697 62.9072C34.7627 62.9072 34.2575 62.6646 33.9273 62.0342C33.5971 61.4039 33.6791 60.8212 34.0824 60.2841C34.4968 59.7295 35.1195 59.6472 35.7843 59.6472C41.3355 59.6559 46.8867 59.6516 52.4379 59.6516C55.7531 59.6516 59.0661 59.6602 62.3813 59.6451C63.1702 59.6407 63.691 60.0111 64.0566 60.635C64.4046 61.2263 64.2029 61.7873 63.8528 62.3072C63.4871 62.8509 62.9242 62.9093 62.3193 62.9072C57.8739 62.9007 53.4263 62.9028 48.9787 62.9028H48.9742Z" fill="#A9A7A1"/>
<path d="M48.9793 69.5457C44.5339 69.5457 40.0907 69.5457 35.6453 69.5457C34.9074 69.5457 34.2935 69.3529 33.9235 68.6619C33.6066 68.0684 33.6753 67.5096 34.0431 66.9811C34.4642 66.3746 35.1046 66.2879 35.796 66.2901C41.7306 66.2966 47.6674 66.2944 53.6019 66.2944C56.5293 66.2944 59.4545 66.2944 62.3819 66.2944C63.091 66.2944 63.6694 66.5175 64.0218 67.176C64.3387 67.7695 64.2678 68.3284 63.9021 68.8569C63.5054 69.4331 62.8982 69.55 62.2312 69.5478C57.8146 69.5414 53.3981 69.5435 48.9793 69.5435V69.5457Z" fill="#A9A7A1"/>
<path d="M40.5276 76.1897C38.8434 76.1897 37.1592 76.1984 35.475 76.1854C34.7969 76.1811 34.2562 75.9276 33.9216 75.3016C33.5847 74.6713 33.7133 74.1016 34.0856 73.5471C34.4069 73.0706 34.8856 72.9319 35.4462 72.9341C38.8146 72.9406 42.183 72.9341 45.5514 72.9406C46.4688 72.9406 47.2732 73.6987 47.291 74.5392C47.3087 75.3753 46.5131 76.1702 45.5802 76.1811C43.896 76.2027 42.2118 76.1876 40.5276 76.1876V76.1897Z" fill="#A9A7A1"/>
<path d="M52.4163 72.9409C53.2938 72.9561 54.1182 73.7792 54.085 74.611C54.0517 75.4644 53.2008 76.216 52.3055 76.1879C51.4213 76.1597 50.6324 75.3518 50.6457 74.4853C50.659 73.6016 51.4346 72.9258 52.4163 72.9409Z" fill="#A9A7A1"/>
<path d="M12.6428 13.304C12.6517 13.5725 12.6694 13.8433 12.6694 14.1119C12.6694 32.9741 12.6694 51.8341 12.6694 70.6963C12.6694 70.9649 12.6517 71.2356 12.6428 71.5042C9.42733 68.5952 6.89217 65.1793 4.83568 61.4168C-3.72933 45.7539 -0.699996 26.151 12.2062 13.6679C12.3414 13.5357 12.4988 13.4253 12.645 13.304H12.6428Z" fill="#ED1C25"/>
<path d="M48.338 2.42151C46.2394 2.99769 44.0809 3.29227 41.9469 3.70383C34.9375 5.05546 27.9215 6.3681 20.9078 7.69157C20.5842 7.75222 20.2518 7.75655 19.9238 7.78905C23.7709 5.37604 27.9659 3.77964 32.4068 2.79841C37.5502 1.66122 42.7402 1.52259 47.9524 2.29371C48.0853 2.31321 48.2094 2.38036 48.338 2.42368V2.42151Z" fill="#ED1C25"/>
</svg>
