<svg width="51" height="51" viewBox="0 0 51 51" fill="none" xmlns="http://www.w3.org/2000/svg">
<g clip-path="url(#clip0_264_837)">
<path d="M42.5968 38.417C42.8823 38.7167 43.1618 39.0215 43.4533 39.3142C45.4548 41.3204 47.4552 43.3287 49.4637 45.3279C50.0846 45.9453 50.7205 46.5458 51.001 47.4121V48.4092C50.433 49.6631 49.5825 50.6122 48.2119 51.0009H47.614C46.7425 50.8151 46.1635 50.2076 45.5686 49.6081C43.3525 47.3751 41.1244 45.154 38.9023 42.927C38.7746 42.7991 38.6618 42.6562 38.543 42.5204C40.0234 41.2805 41.3899 39.9287 42.5968 38.418V38.417Z" fill="#364C5F"/>
<path d="M42.5972 38.4172C41.3904 39.9279 40.0238 41.2797 38.5434 42.5196C37.1838 43.4937 35.8102 44.4449 34.2929 45.1633C34.0114 45.2961 33.7498 45.483 33.4294 45.5239C31.978 45.488 30.5295 45.5429 29.0771 45.3381C26.4338 44.9654 23.9412 44.1581 21.5534 42.9902C21.4066 42.9182 21.2379 42.8643 21.219 42.6605C21.4156 42.6784 21.6113 42.7014 21.8079 42.7144C25.739 42.9772 29.4554 42.2558 32.8894 40.2676C34.2699 39.4683 35.5716 38.5591 36.6557 37.3711C36.7526 37.3102 36.8664 37.2662 36.9422 37.1863C38.5454 35.5088 39.879 33.6414 40.8114 31.5093C41.6649 29.557 42.2469 27.5308 42.3377 25.3857C42.5284 23.971 42.4375 22.5632 42.2289 21.1584C42.2289 21.0755 42.2429 20.9906 42.2299 20.9097C41.8326 18.3939 40.9861 16.0399 39.6414 13.8749C39.2781 13.2894 38.9497 12.6699 38.4156 12.2063C38.2719 11.8417 37.9854 11.5789 37.7328 11.3021C37.0121 10.5118 36.3133 9.69455 35.3959 9.11306C35.0236 8.63349 34.5005 8.33775 34.0104 8.01203C30.4357 5.63713 26.5016 4.59305 22.2202 4.86082C22.1873 4.85082 22.1553 4.84183 22.1224 4.83184C21.7111 3.26522 20.7588 2.0473 19.6168 0.955261C19.4641 0.808391 19.2584 0.712476 19.2305 0.470689C19.9921 0.222908 20.7877 0.148973 21.5743 0.0880267C28.3294 -0.441506 34.3208 1.43883 39.4528 5.8939C43.4697 9.38083 46.0471 13.768 47.0833 18.9744C48.4888 26.0411 46.9815 32.4994 42.6691 38.2863C42.6402 38.3253 42.6222 38.3732 42.5992 38.4182L42.5972 38.4172Z" fill="#ED1C25"/>
<path d="M21.2178 42.6612C21.2367 42.8651 21.4064 42.919 21.5522 42.9909C23.94 44.1579 26.4326 44.9662 29.0759 45.3389C30.5283 45.5437 31.9768 45.4887 33.4282 45.5247C32.5158 46.0832 31.4926 46.361 30.4844 46.6647C27.8091 47.472 25.063 47.7737 22.2839 47.5829C11.7495 46.8585 3.36429 39.556 0.800814 29.9574C-0.00376609 26.9411 -0.193431 23.8888 0.192887 20.7915C0.719957 16.5683 2.30516 12.7826 4.83469 9.3776C4.87263 9.32565 4.92753 9.28568 4.97345 9.24072C5.18108 10.6215 5.69118 11.8754 6.52072 13.0004C6.75431 13.3181 6.96793 13.6508 7.19054 13.9765C6.56963 15.0316 6.03158 16.1286 5.62131 17.2806C5.17909 18.5215 4.80774 19.7844 4.70093 21.1093C4.69694 21.1382 4.69794 21.1662 4.70592 21.1952C4.52324 21.5499 4.57915 21.9455 4.5492 22.3182C4.46734 23.3383 4.40845 24.3634 4.58514 25.3825C4.58713 25.4155 4.58813 25.4484 4.59013 25.4824C4.56916 26.2637 4.73188 27.023 4.89958 27.7754C5.18208 29.0443 5.5095 30.3031 6.12442 31.4641C6.71138 32.9108 7.52295 34.2247 8.48425 35.4486C9.0233 36.133 9.52841 36.8504 10.2461 37.3709C12 39.1913 14.0954 40.4961 16.4252 41.4363C17.714 41.9569 19.0356 42.3685 20.4282 42.5134C20.6917 42.5633 20.9552 42.6123 21.2188 42.6622L21.2178 42.6612Z" fill="#D7171F"/>
<path d="M12.3553 0.339622C13.623 0.237712 14.8289 0.483495 15.9918 0.977059C16.1416 1.041 16.2943 1.09995 16.445 1.1619C18.0812 2.09907 19.325 3.39992 20.1156 5.1234C20.1315 5.18734 20.1425 5.25329 20.1655 5.31523C21.1787 8.04382 20.8173 10.5886 19.1413 12.9545C18.6232 13.6858 18.0802 14.3992 17.5701 15.1346C16.2843 16.9869 14.6622 18.6515 14.2619 21.0044C14.225 20.8785 14.1771 20.7556 14.1521 20.6277C13.9235 19.4647 13.5671 18.3497 12.8684 17.3746C11.8182 15.9099 10.783 14.4332 9.69097 13.0004C8.22755 11.0811 7.42197 9.00098 7.76836 6.53915C8.06284 4.445 9.06507 2.78746 10.6672 1.45064C11.1903 1.01403 11.8182 0.746263 12.3563 0.338623L12.3553 0.339622ZM8.56495 8.22566C8.56995 10.5846 10.4836 12.5069 12.8304 12.5079C15.1653 12.5089 17.1089 10.5726 17.1219 8.23266C17.1348 5.86974 15.1943 3.93745 12.8125 3.94244C10.4456 3.94844 8.55996 5.84976 8.56495 8.22566Z" fill="#F5F1E5"/>
<path d="M12.355 0.3396C11.816 0.746241 11.1891 1.015 10.666 1.45162C9.06383 2.78844 8.0626 4.44598 7.76712 6.54013C7.42073 9.00196 8.22631 11.0821 9.68973 13.0014C10.7828 14.4342 11.817 15.9109 12.8671 17.3756C13.5659 18.3497 13.9223 19.4647 14.1509 20.6287C14.1758 20.7566 14.2237 20.8795 14.2607 21.0054C14.2706 21.0383 14.2806 21.0723 14.2906 21.1053C14.2357 21.3631 14.1958 21.6268 14.1219 21.8796C13.9562 22.4471 13.3862 22.8747 12.8272 22.8687C12.2612 22.8637 11.7451 22.4841 11.5624 21.9196C11.4766 21.6528 11.4197 21.377 11.3488 21.1053C11.2719 20.5328 11.1422 19.9693 10.9026 19.4447C9.97622 17.4115 8.47387 15.768 7.18814 13.9776C6.96554 13.6519 6.75291 13.3191 6.51832 13.0014C5.68879 11.8764 5.17769 10.6215 4.97105 9.24174C4.7774 7.46331 5.06689 5.77081 5.99924 4.23916C7.44569 1.86425 9.54798 0.514445 12.355 0.3396Z" fill="#E7E2D4"/>
<path d="M20.1158 5.12238C19.3262 3.3999 18.0824 2.09805 16.4453 1.16087C17.3507 0.842154 18.2631 0.548413 19.2284 0.469482C19.2564 0.712268 19.462 0.808184 19.6147 0.954055C20.7567 2.04609 21.709 3.26402 22.1203 4.83063C21.4475 4.89458 20.7697 4.92855 20.1158 5.12138V5.12238Z" fill="#D31A22"/>
<path d="M42.3367 25.3845C42.2458 27.5306 41.6639 29.5558 40.8104 31.5081C39.878 33.6412 38.5454 35.5076 36.9412 37.1851C36.8643 37.265 36.7505 37.309 36.6537 37.3699C32.6368 37.3679 28.6209 37.3659 24.604 37.3649C24.593 36.3898 24.582 35.4136 24.571 34.4385C24.7168 34.3626 24.8645 34.2896 25.0083 34.2087C26.0644 33.6142 26.5306 32.3653 26.1273 31.2143C25.728 30.0773 24.5331 29.373 23.3691 29.5898C22.1743 29.8126 21.3128 30.8397 21.3238 32.0536C21.3347 33.2426 21.9966 33.9789 23.0287 34.4455C23.0248 35.4126 23.0198 36.3798 23.0158 37.3479C22.9828 37.3529 22.9519 37.3639 22.9229 37.3829C20.1329 37.3429 17.3428 37.3429 14.5527 37.3829L14.3451 37.3299C13.1182 35.8493 12.0062 34.2926 11.1607 32.5562C11.0978 32.4273 11.0589 32.2644 10.8662 32.2594C10.8952 32.1915 10.9241 32.1225 10.9531 32.0546C12.4155 30.0634 13.8879 28.0781 15.3343 26.0749C15.6877 25.5853 16.096 25.3745 16.7109 25.3755C25.2528 25.3905 33.7947 25.3845 42.3367 25.3845Z" fill="#9BC97B"/>
<path d="M42.3365 25.3847C33.7945 25.3847 25.2526 25.3907 16.7107 25.3757C16.0958 25.3747 15.6885 25.5855 15.3341 26.0751C13.8867 28.0783 12.4153 30.0636 10.9529 32.0548C10.6654 31.7231 10.5566 31.2995 10.3968 30.9088C9.91169 29.7248 9.4525 28.5289 9.25984 27.252C9.57429 26.8054 9.89472 26.3628 10.2022 25.9112C10.4487 25.5505 10.3809 25.3997 9.95861 25.3887C9.59525 25.3787 9.23089 25.4007 8.86653 25.4077C8.83559 25.3957 8.80464 25.3837 8.7737 25.3717C8.71879 23.9789 8.4892 22.5951 8.57605 21.1964L8.58902 21.1694C8.81363 21.1694 9.03823 21.1694 9.26383 21.1684C9.30077 21.3113 9.34569 21.4521 9.37364 21.597C9.53635 22.4333 9.76295 23.2476 10.3978 23.86C11.3492 24.7762 12.4841 25.1409 13.7659 24.7542C15.0107 24.3786 15.8023 23.5193 16.1407 22.2474C16.2365 21.8878 16.1906 21.4831 16.4631 21.1774C19.5457 21.1744 22.6292 21.1714 25.7118 21.1674C25.9105 21.1674 26.1091 21.1514 26.3068 21.1464C26.5383 21.1404 26.6951 21.0385 26.8368 20.8437C29.6848 16.9301 32.5398 13.0226 35.3947 9.11304C36.3111 9.69452 37.0109 10.5118 37.7316 11.3021C37.9841 11.5789 38.2706 11.8416 38.4144 12.2063C36.346 15.0268 34.2777 17.8473 32.2113 20.6688C32.1355 20.7727 32.0237 20.8846 32.0886 21.0265C32.1644 21.1944 32.3361 21.1674 32.4809 21.1674C35.7301 21.1654 38.9784 21.1614 42.2277 21.1574C42.4363 22.5622 42.5271 23.9699 42.3365 25.3847Z" fill="white"/>
<path d="M35.395 9.11302C32.541 13.0226 29.6851 16.9301 26.8371 20.8437C26.6953 21.0385 26.5396 21.1404 26.307 21.1464C26.1084 21.1514 25.9097 21.1664 25.7121 21.1674C22.6295 21.1714 19.5459 21.1744 16.4634 21.1774C16.4524 21.1524 16.4444 21.1264 16.4404 21.0994C16.4873 20.3991 16.7788 19.7816 17.1691 19.2271C18.3481 17.5546 19.53 15.883 20.7578 14.2475C22.0955 12.4651 22.7553 10.4608 22.8022 8.25878C22.8262 7.1008 22.5676 5.9678 22.2182 4.86177C26.4997 4.59301 30.4337 5.63809 34.0084 8.01299C34.4986 8.33871 35.0216 8.63444 35.394 9.11402L35.395 9.11302Z" fill="#9BC97B"/>
<path d="M24.6042 37.3649C28.6202 37.3669 32.6371 37.3689 36.654 37.3699C35.5699 38.5589 34.2682 39.467 32.8876 40.2673C29.4547 42.2556 25.7382 42.9779 21.8062 42.7142C21.6095 42.7012 21.4139 42.6782 21.2172 42.6602C20.9537 42.6103 20.6901 42.5613 20.4266 42.5114C20.4176 42.3605 20.3228 42.2846 20.2 42.2136C19.3295 41.7101 18.505 41.1396 17.7084 40.5231C16.6213 39.6819 15.653 38.7137 14.6917 37.7366C14.5919 37.6347 14.537 37.5248 14.551 37.3829C17.3411 37.3419 20.1311 37.3429 22.9212 37.3829C22.9492 37.4039 22.9781 37.4249 23.0061 37.4458C23.0091 37.6946 23.0071 37.9434 23.016 38.1912C23.033 38.6917 23.2985 38.9905 23.7527 39.0284C24.1191 39.0594 24.5503 38.6827 24.5923 38.2601C24.6212 37.9644 24.6012 37.6636 24.6032 37.3659L24.6042 37.3649Z" fill="white"/>
<path d="M42.2265 21.1564C38.9773 21.1604 35.729 21.1644 32.4797 21.1664C32.334 21.1664 32.1623 21.1934 32.0874 21.0255C32.0236 20.8837 32.1344 20.7718 32.2102 20.6679C34.2766 17.8463 36.3449 15.0258 38.4133 12.2053C38.9483 12.6679 39.2758 13.2884 39.6401 13.8729C40.9847 16.0369 41.8312 18.3909 42.2285 20.9076C42.2415 20.9886 42.2285 21.0735 42.2275 21.1564H42.2265Z" fill="#9CCA7D"/>
<path d="M22.2177 4.86076C22.5671 5.96679 22.8256 7.09979 22.8017 8.25776C22.7557 10.4598 22.0949 12.4641 20.7573 14.2465C19.5294 15.883 18.3465 17.5536 17.1686 19.2261C16.7773 19.7806 16.4858 20.3981 16.4399 21.0984C15.7241 21.1004 15.0074 21.1014 14.2917 21.1034C14.2817 21.0705 14.2717 21.0365 14.2617 21.0035C14.663 18.6506 16.2841 16.9861 17.5699 15.1337C18.08 14.3973 18.623 13.685 19.1411 12.9536C20.8172 10.5877 21.1775 8.04295 20.1653 5.31436C20.1423 5.25242 20.1314 5.18647 20.1154 5.12253C20.7692 4.9297 21.447 4.89573 22.1199 4.83179C22.1528 4.84178 22.1847 4.85077 22.2177 4.86076Z" fill="#87C061"/>
<path d="M7.19078 13.9766C8.47651 15.767 9.97986 17.4105 10.9052 19.4437C11.1438 19.9683 11.2746 20.5318 11.3514 21.1043C10.6587 21.1013 9.96588 21.0993 9.27211 21.0963C9.15232 20.6037 9.0495 20.1042 8.72707 19.6695C8.51744 20.1451 8.58632 20.6247 8.57334 21.0953C7.28262 21.1003 5.99189 21.1043 4.70117 21.1093C4.80798 19.7854 5.17933 18.5216 5.62155 17.2806C6.03182 16.1287 6.56987 15.0316 7.19078 13.9766Z" fill="#87C061"/>
<path d="M9.25947 27.2529C9.45213 28.5298 9.91132 29.7257 10.3965 30.9097C10.5562 31.3004 10.665 31.724 10.9525 32.0557C10.9235 32.1236 10.8946 32.1926 10.8656 32.2605C10.072 33.3236 9.27844 34.3856 8.48484 35.4487C7.52353 34.2238 6.71097 32.9109 6.125 31.4642C7.14021 30.0684 8.15641 28.6717 9.17162 27.2759C9.20157 27.2699 9.23052 27.2619 9.26047 27.2529H9.25947Z" fill="#F4F4F4"/>
<path d="M9.17064 27.2749C8.15543 28.6706 7.14022 30.0674 6.12401 31.4632C5.5091 30.3022 5.18168 29.0433 4.89917 27.7744C4.73147 27.0221 4.56876 26.2618 4.58972 25.4815C4.62366 25.4575 4.6566 25.4325 4.69054 25.4085C6.05214 25.3965 7.41274 25.3845 8.77434 25.3726C8.80528 25.3845 8.83623 25.3975 8.86717 25.4085C8.96899 26.031 9.06981 26.6524 9.17163 27.2749H9.17064Z" fill="#87C061"/>
<path d="M8.77419 25.3726C7.4126 25.3846 6.052 25.3966 4.6904 25.4086C4.65546 25.3996 4.62052 25.3906 4.58558 25.3816C4.4079 24.3625 4.46679 23.3374 4.54965 22.3173C4.5796 21.9447 4.52369 21.55 4.70637 21.1943C5.99709 21.1943 7.28682 21.1963 8.57754 21.1963C8.49069 22.5951 8.72129 23.9789 8.77519 25.3716L8.77419 25.3726Z" fill="#F4F4F4"/>
<path d="M14.5525 37.3831C14.5385 37.5259 14.5934 37.6358 14.6932 37.7367C15.6545 38.7139 16.6228 39.682 17.7099 40.5233C18.5055 41.1397 19.331 41.7092 20.2015 42.2138C20.3243 42.2847 20.4191 42.3607 20.4281 42.5115C19.0366 42.3667 17.7139 41.955 16.4252 41.4345C14.0963 40.4943 12 39.1895 10.2471 37.3691C11.6137 37.3561 12.9792 37.3431 14.3448 37.3291L14.5525 37.3831Z" fill="#F4F4F4"/>
<path d="M14.344 37.331C12.9784 37.344 11.6119 37.357 10.2463 37.371C9.52853 36.8504 9.02342 36.1341 8.48438 35.4487C9.27797 34.3856 10.0716 33.3236 10.8652 32.2605C11.0578 32.2655 11.0968 32.4283 11.1597 32.5572C12.0052 34.2927 13.1172 35.8503 14.344 37.331Z" fill="#87C061"/>
<path d="M8.57618 21.1974C7.28545 21.1974 5.99573 21.1954 4.70501 21.1954C4.69802 21.1674 4.69602 21.1384 4.70101 21.1094C5.99174 21.1045 7.28246 21.1005 8.57318 21.0955C8.57917 21.1204 8.58416 21.1454 8.58915 21.1704L8.57618 21.1974Z" fill="#FBF0D8"/>
<path d="M4.58498 25.3816C4.61992 25.3906 4.65486 25.3996 4.6898 25.4086C4.65586 25.4325 4.62292 25.4575 4.58898 25.4815C4.58698 25.4485 4.58598 25.4156 4.58398 25.3816H4.58498Z" fill="#9CCA7D"/>
<path d="M8.56446 8.22586C8.55947 5.84996 10.4451 3.94864 12.812 3.94264C15.1928 3.93665 17.1343 5.86994 17.1214 8.23286C17.1084 10.5728 15.1648 12.5091 12.8299 12.5081C10.4841 12.5071 8.57045 10.5858 8.56446 8.22586Z" fill="#ED1C25"/>
<path d="M9.27164 21.0964C9.96441 21.0994 10.6572 21.1014 11.351 21.1044C11.4208 21.3762 11.4777 21.6519 11.5646 21.9187C11.7473 22.4832 12.2634 22.8619 12.8294 22.8679C13.3884 22.8729 13.9584 22.4462 14.1241 21.8787C14.1979 21.626 14.2379 21.3632 14.2928 21.1044C15.0085 21.1024 15.7252 21.1014 16.441 21.0994C16.445 21.1264 16.453 21.1524 16.4639 21.1774C16.1914 21.4831 16.2373 21.8887 16.1415 22.2474C15.8031 23.5193 15.0125 24.3785 13.7667 24.7542C12.485 25.1419 11.35 24.7772 10.3986 23.86C9.76377 23.2485 9.53717 22.4333 9.37446 21.597C9.3465 21.4521 9.30158 21.3112 9.26465 21.1684C9.26664 21.1444 9.26864 21.1204 9.27363 21.0964H9.27164Z" fill="#F4F4F4"/>
<path d="M23.0283 34.4456C21.9972 33.979 21.3343 33.2437 21.3233 32.0537C21.3124 30.8398 22.1738 29.8127 23.3687 29.5899C24.5327 29.3731 25.7286 30.0775 26.1269 31.2145C26.5302 32.3654 26.065 33.6133 25.0078 34.2088C24.8651 34.2897 24.7164 34.3617 24.5716 34.4376C24.0575 34.5765 23.5434 34.5545 23.0283 34.4446V34.4456Z" fill="#ED1C25"/>
<path d="M23.0288 34.4457C23.5439 34.5556 24.058 34.5776 24.5721 34.4387C24.583 35.4139 24.594 36.39 24.605 37.3651C24.603 37.6639 24.623 37.9636 24.594 38.2593C24.5521 38.683 24.1218 39.0586 23.7545 39.0277C23.3003 38.9897 23.0348 38.691 23.0178 38.1904C23.0098 37.9416 23.0108 37.6938 23.0078 37.4451C23.0118 37.4131 23.0148 37.3801 23.0158 37.3482C23.0198 36.381 23.0248 35.4139 23.0288 34.4457Z" fill="#FBDEAF"/>
<path d="M23.0157 37.3482C23.0157 37.3811 23.0117 37.4131 23.0077 37.4451C22.9798 37.4241 22.9508 37.4031 22.9229 37.3821C22.9508 37.3642 22.9817 37.3522 23.0157 37.3472V37.3482Z" fill="#FDF1DA"/>
<path d="M9.17067 27.2749C9.06885 26.6525 8.96803 26.031 8.86621 25.4086C9.23057 25.4006 9.59493 25.3796 9.95828 25.3896C10.3805 25.4006 10.4484 25.5515 10.2019 25.9121C9.8934 26.3637 9.57396 26.8064 9.25952 27.253C9.23057 27.262 9.20062 27.2689 9.17067 27.2759V27.2749Z" fill="#9CCA7D"/>
<path d="M9.27206 21.0964C9.26807 21.1204 9.26507 21.1444 9.26308 21.1684C9.03847 21.1684 8.81387 21.1684 8.58827 21.1694C8.58328 21.1444 8.57828 21.1194 8.57229 21.0944C8.58527 20.6239 8.51639 20.1453 8.72602 19.6687C9.04845 20.1033 9.15227 20.6029 9.27106 21.0954L9.27206 21.0964Z" fill="#9BC97B"/>
</g>
<defs>
<clipPath id="clip0_264_837">
<rect width="51" height="51" fill="white"/>
</clipPath>
</defs>
</svg>
