<svg width="48" height="48" viewBox="0 0 48 48" fill="none" xmlns="http://www.w3.org/2000/svg">
<path d="M48 22.2259V25.8812C47.8752 25.947 47.9137 26.0691 47.9043 26.1715C47.8039 27.1964 47.6566 28.2147 47.4295 29.219C45.2123 39.004 37.3786 46.2677 27.4525 47.7529C26.9064 47.8346 26.3462 47.8224 25.8152 47.999H22.1643C21.8744 47.814 21.5356 47.8713 21.2232 47.8327C15.7183 47.1545 10.9002 44.9412 7.09354 40.9242C0.0198018 33.4614 -1.81455 24.7295 1.82037 15.1098C5.94695 4.1899 17.8519 -1.99434 29.2258 0.581565C39.0065 2.79673 46.2707 10.6437 47.7542 20.5857C47.8358 21.1324 47.8236 21.6933 48 22.2259ZM17.3274 12.4089C17.3218 11.726 17.3152 11.0421 17.3105 10.3591C17.3077 9.99742 17.1904 9.69211 16.8846 9.47604C16.5637 9.2487 16.2231 9.22615 15.8721 9.3821C15.433 9.57844 15.2885 9.96548 15.2745 10.4051C15.2538 11.0721 15.2585 11.741 15.2529 12.408C14.0988 12.4089 12.9447 12.3976 11.7906 12.4155C10.5915 12.4343 9.9525 13.0778 9.92998 14.2784C9.91403 15.137 9.9159 15.9956 9.92998 16.8543C9.9403 17.4602 9.86618 18.068 9.97596 18.6711C9.97314 23.744 9.96939 28.8169 9.96751 33.8898C9.96751 35.3008 10.5427 35.8776 11.9557 35.8776C20.0006 35.8786 28.0445 35.8786 36.0894 35.8776C37.5372 35.8776 38.102 35.3121 38.103 33.8673C38.103 28.9663 38.103 24.0644 38.103 19.1634C38.103 18.9924 38.0879 18.8214 38.0804 18.6495C38.0842 17.231 38.0504 15.8115 38.103 14.3939C38.1471 13.1924 37.4687 12.3742 36.0894 12.4052C35 12.4296 33.9098 12.408 32.8195 12.407C32.811 11.7081 32.8326 11.0073 32.7857 10.3112C32.7397 9.62823 32.3081 9.25527 31.7048 9.28909C31.1362 9.32103 30.7778 9.73626 30.7627 10.4042C30.7487 11.0721 30.7505 11.7401 30.7449 12.407C26.2721 12.407 21.8002 12.407 17.3274 12.407V12.4089Z" fill="#ED1C25"/>
<path d="M38.0797 18.6506C38.0872 18.8216 38.1022 18.9926 38.1022 19.1645C38.1032 24.0655 38.1041 28.9674 38.1022 33.8684C38.1022 35.3132 37.5365 35.8787 36.0887 35.8787C28.0438 35.8797 19.9999 35.8797 11.955 35.8787C10.542 35.8787 9.9668 35.3019 9.9668 33.8909C9.96867 28.818 9.97243 23.7451 9.97524 18.6722C19.2502 18.6741 28.5252 18.676 37.8001 18.676C37.893 18.676 37.9859 18.66 38.0788 18.6516L38.0797 18.6506ZM20.9166 33.2812C21.3379 33.2812 21.6813 33.2709 22.0238 33.2841C22.3212 33.2953 22.4469 33.1779 22.4413 32.8745C22.4291 32.2037 22.431 31.533 22.4413 30.8632C22.4451 30.5917 22.3343 30.4761 22.0669 30.4414C21.3369 30.3465 20.6051 30.4066 19.8742 30.401C19.6349 30.3991 19.5551 30.556 19.5542 30.772C19.5542 31.1309 19.5392 31.4898 19.5542 31.8477C19.573 32.2948 19.3637 32.8576 19.6499 33.161C19.9605 33.4898 20.5385 33.222 20.9166 33.2812ZM26.992 33.2803C27.433 33.2803 27.7914 33.2747 28.1489 33.2822C28.4022 33.2878 28.5214 33.1826 28.5195 32.9243C28.5148 32.2065 28.5167 31.4898 28.5167 30.772C28.5167 30.5569 28.4379 30.3981 28.1977 30.4C27.4668 30.4057 26.7358 30.3455 26.0049 30.4404C25.7375 30.4752 25.6193 30.5888 25.6296 30.8622C25.6418 31.1891 25.6202 31.5179 25.6343 31.8449C25.654 32.293 25.4448 32.8547 25.7281 33.1591C26.0368 33.4917 26.6167 33.222 26.9901 33.2812L26.992 33.2803ZM21.0057 20.9146C20.6482 20.9146 20.2898 20.9231 19.9333 20.9118C19.6499 20.9024 19.5467 21.033 19.5495 21.3054C19.557 21.9903 19.5551 22.6751 19.5505 23.36C19.5486 23.6099 19.6499 23.732 19.9098 23.7301C20.6248 23.7245 21.3407 23.7226 22.0557 23.731C22.339 23.7348 22.4422 23.6089 22.4385 23.3365C22.431 22.6676 22.4291 21.9978 22.4394 21.3289C22.4441 21.034 22.3362 20.8987 22.0313 20.9118C21.6897 20.9259 21.3473 20.9156 21.0048 20.9156L21.0057 20.9146ZM27.1083 20.9146C26.7509 20.9146 26.3934 20.9222 26.0359 20.9118C25.7694 20.9043 25.6287 20.9945 25.6324 21.2848C25.6409 21.9696 25.6399 22.6545 25.6324 23.3393C25.6296 23.6136 25.7384 23.7348 26.019 23.731C26.719 23.7226 27.418 23.7198 28.1179 23.732C28.4266 23.7376 28.527 23.6005 28.5233 23.3092C28.513 22.6404 28.5148 21.9706 28.5223 21.3017C28.5252 21.0264 28.4163 20.9024 28.1348 20.9118C27.7933 20.9231 27.4508 20.9146 27.1083 20.9146ZM20.9541 28.5043C21.3276 28.5043 21.701 28.4986 22.0735 28.5061C22.3306 28.5118 22.4394 28.3962 22.4376 28.1426C22.4329 27.4577 22.4282 26.772 22.4394 26.0871C22.4441 25.7771 22.3034 25.6803 22.0135 25.685C21.3294 25.6954 20.6445 25.6963 19.9605 25.685C19.6593 25.6803 19.5429 25.8034 19.5476 26.1003C19.558 26.7541 19.5636 27.408 19.5448 28.0618C19.5345 28.4188 19.6893 28.5287 20.0205 28.509C20.3302 28.4911 20.6426 28.5052 20.9532 28.5043H20.9541ZM27.1478 25.6888C27.0417 25.6888 27.0108 25.6888 26.9798 25.6888C25.6334 25.6888 25.624 25.6888 25.6381 27.0322C25.6427 27.4934 25.4363 28.0778 25.7356 28.3868C26.0565 28.7175 26.6523 28.493 27.1262 28.4996C28.5195 28.5184 28.528 28.5061 28.5148 27.1186C28.5111 26.6724 28.7081 26.1115 28.4173 25.8091C28.1039 25.4831 27.5287 25.7489 27.1468 25.6888H27.1478ZM34.6099 22.336C34.6099 21.9781 34.6071 21.6202 34.6109 21.2622C34.6137 21.034 34.5217 20.9146 34.2815 20.9156C33.5666 20.9193 32.8516 20.9193 32.1366 20.9156C31.9011 20.9146 31.7979 21.0236 31.7988 21.2557C31.8017 21.9555 31.8045 22.6563 31.796 23.3562C31.7923 23.6456 31.9358 23.7367 32.2004 23.7301C32.542 23.7216 32.8844 23.7292 33.226 23.7292C34.1499 23.7292 34.6112 23.2648 34.6099 22.336ZM13.46 27.0726C13.46 27.4305 13.4657 27.7884 13.4582 28.1463C13.4525 28.4047 13.5708 28.508 13.8241 28.5061C14.5081 28.4996 15.1921 28.4986 15.8761 28.5061C16.1463 28.509 16.2777 28.4122 16.274 28.1266C16.2655 27.4418 16.2655 26.7569 16.274 26.0721C16.2768 25.7921 16.1548 25.6794 15.8808 25.686C15.5393 25.6954 15.1968 25.6869 14.8553 25.6869C13.9245 25.6869 13.4594 26.1482 13.46 27.0707V27.0726ZM33.2016 25.6785C32.8272 25.6785 32.4528 25.6869 32.0784 25.6757C31.858 25.6691 31.7754 25.7536 31.7773 25.9744C31.7857 26.724 31.7829 27.4737 31.7782 28.2234C31.7773 28.4113 31.8298 28.5099 32.0409 28.5071C32.8056 28.4996 33.5694 28.5005 34.3341 28.5071C34.533 28.509 34.6109 28.4404 34.6081 28.2365C34.6006 27.4869 34.5968 26.7372 34.6099 25.9875C34.6146 25.7301 34.5058 25.6672 34.2759 25.6747C33.9175 25.686 33.5581 25.6775 33.1997 25.6785H33.2016ZM16.273 31.8712C16.273 31.5602 16.2599 31.2483 16.2768 30.9383C16.2937 30.6086 16.1839 30.4507 15.8283 30.4601C15.1762 30.478 14.5231 30.4733 13.8701 30.462C13.5726 30.4573 13.4507 30.5748 13.4553 30.8754C13.4666 31.5442 13.4647 32.2131 13.4553 32.882C13.4525 33.1488 13.5407 33.2869 13.8297 33.2831C14.5137 33.2737 15.1968 33.2747 15.8808 33.2831C16.1548 33.2859 16.2815 33.1788 16.273 32.8979C16.2627 32.556 16.2702 32.2131 16.2721 31.8712H16.273Z" fill="#FFFFFE"/>
<path d="M38.0802 18.6504C37.9873 18.6589 37.8945 18.6749 37.8016 18.6749C28.5266 18.6749 19.2516 18.673 9.97669 18.6711C9.86597 18.068 9.9401 17.4593 9.93071 16.8543C9.91664 15.9956 9.91476 15.137 9.93071 14.2784C9.95323 13.0778 10.5922 12.4343 11.7913 12.4155C12.9454 12.3976 14.0995 12.4098 15.2536 12.408C15.3465 13.0881 15.2667 13.7711 15.2996 14.4522C15.3324 15.1314 15.7246 15.5654 16.2979 15.5673C16.8862 15.5691 17.2916 15.1004 17.301 14.4089C17.3094 13.7419 17.3197 13.075 17.3291 12.408C21.8019 12.408 26.2738 12.408 30.7466 12.408C30.756 13.0937 30.7719 13.7795 30.7719 14.4653C30.7719 14.8721 30.9127 15.1999 31.2636 15.4132C31.8904 15.7946 32.6654 15.3982 32.7526 14.6476C32.8399 13.9035 32.7114 13.1511 32.8202 12.407C33.9105 12.408 35.0008 12.4296 36.0901 12.4051C37.4694 12.3741 38.1478 13.1924 38.1037 14.3939C38.0511 15.8106 38.0849 17.231 38.0812 18.6495L38.0802 18.6504Z" fill="#F5F1E5"/>
<path d="M17.3274 12.4091C17.3181 13.0761 17.3087 13.7431 17.2993 14.4101C17.2899 15.1015 16.8846 15.5703 16.2963 15.5684C15.7239 15.5665 15.3308 15.1315 15.2979 14.4533C15.2651 13.7722 15.3448 13.0883 15.252 12.4091C15.2576 11.7412 15.252 11.0732 15.2735 10.4062C15.2867 9.96659 15.4321 9.5786 15.8712 9.3832C16.2221 9.22632 16.5627 9.2498 16.8836 9.47715C17.1895 9.69415 17.3068 9.99853 17.3096 10.3602C17.3152 11.0432 17.3209 11.7271 17.3265 12.41L17.3274 12.4091Z" fill="#364C5F"/>
<path d="M32.8197 12.4092C32.7099 13.1532 32.8394 13.9057 32.7521 14.6497C32.664 15.4003 31.8889 15.7967 31.2631 15.4153C30.9122 15.2021 30.7714 14.8742 30.7714 14.4674C30.7714 13.7817 30.7555 13.0959 30.7461 12.4101C30.7517 11.7422 30.7498 11.0742 30.7639 10.4073C30.778 9.73932 31.1374 9.3241 31.706 9.29215C32.3102 9.25834 32.7409 9.63129 32.7869 10.3142C32.8338 11.0104 32.8122 11.7112 32.8206 12.4101L32.8197 12.4092Z" fill="#364C5F"/>
<path d="M20.9168 33.2814C20.5386 33.2222 19.9606 33.4899 19.6501 33.1611C19.3639 32.8577 19.5731 32.295 19.5544 31.8478C19.5394 31.4899 19.5534 31.131 19.5544 30.7722C19.5544 30.5561 19.6341 30.3992 19.8743 30.4011C20.6053 30.4067 21.3362 30.3466 22.0671 30.4415C22.3355 30.4763 22.4462 30.5918 22.4415 30.8633C22.4312 31.534 22.4302 32.2048 22.4415 32.8746C22.4471 33.178 22.3214 33.2964 22.0239 33.2842C21.6815 33.271 21.339 33.2814 20.9168 33.2814Z" fill="#D0D7E1"/>
<path d="M26.9929 33.2801C26.6185 33.2209 26.0396 33.4905 25.7309 33.158C25.4475 32.8536 25.6568 32.2918 25.6371 31.8437C25.623 31.5168 25.6446 31.189 25.6324 30.8611C25.6221 30.5877 25.7403 30.4741 26.0077 30.4393C26.7377 30.3444 27.4695 30.4045 28.2005 30.3989C28.4407 30.397 28.5195 30.5558 28.5195 30.7709C28.5195 31.4886 28.5167 32.2054 28.5223 32.9231C28.5242 33.1824 28.405 33.2867 28.1517 33.2811C27.7933 33.2726 27.4348 33.2792 26.9948 33.2792L26.9929 33.2801Z" fill="#D0D7E1"/>
<path d="M21.0061 20.9148C21.3486 20.9148 21.6911 20.9261 22.0326 20.911C22.3375 20.8979 22.4455 21.0332 22.4408 21.3281C22.4295 21.997 22.4323 22.6668 22.4398 23.3357C22.4426 23.6081 22.3394 23.734 22.057 23.7302C21.342 23.7218 20.6271 23.7237 19.9111 23.7293C19.6512 23.7312 19.5499 23.61 19.5518 23.3592C19.5565 22.6743 19.5583 21.9895 19.5508 21.3046C19.548 21.0322 19.6512 20.9026 19.9346 20.911C20.2921 20.9223 20.6496 20.9138 21.0071 20.9138L21.0061 20.9148Z" fill="#D0D7E1"/>
<path d="M27.1088 20.9147C27.4513 20.9147 27.7928 20.9231 28.1353 20.9119C28.4158 20.9025 28.5256 21.0265 28.5228 21.3017C28.5153 21.9706 28.5134 22.6404 28.5237 23.3093C28.5284 23.5996 28.4271 23.7367 28.1184 23.732C27.4194 23.7198 26.7194 23.7217 26.0195 23.7311C25.7389 23.7348 25.6301 23.6146 25.6329 23.3393C25.6404 22.6545 25.6413 21.9697 25.6329 21.2848C25.6291 20.9955 25.7699 20.9044 26.0363 20.9119C26.3938 20.9222 26.7513 20.9147 27.1088 20.9147Z" fill="#ED1C25"/>
<path d="M20.9547 28.5052C20.6442 28.5052 20.3317 28.4911 20.0221 28.5099C19.6909 28.5296 19.5361 28.4197 19.5464 28.0627C19.5651 27.4089 19.5595 26.755 19.5492 26.1012C19.5445 25.8043 19.6609 25.6803 19.962 25.686C20.6461 25.6972 21.3301 25.6963 22.015 25.686C22.304 25.6813 22.4457 25.778 22.441 26.088C22.4297 26.7729 22.4335 27.4577 22.4391 28.1435C22.441 28.3981 22.3322 28.5127 22.0751 28.5071C21.7016 28.4986 21.3291 28.5052 20.9557 28.5052H20.9547Z" fill="#D0D7E1"/>
<path d="M14.8298 28.5118C14.5192 28.5118 14.2067 28.4977 13.8971 28.5165C13.5659 28.5362 13.4111 28.4263 13.4214 28.0693C13.4401 27.4155 13.4345 26.7616 13.4242 26.1078C13.4195 25.8109 13.5359 25.6869 13.837 25.6926C14.5211 25.7038 15.2051 25.7029 15.89 25.6926C16.179 25.6879 16.3207 25.7846 16.316 26.0946C16.3047 26.7795 16.3085 27.4643 16.3141 28.1501C16.316 28.4047 16.2072 28.5193 15.9501 28.5137C15.5766 28.5052 15.2041 28.5118 14.8307 28.5118H14.8298Z" fill="#D0D7E1"/>
<path d="M27.148 25.6889C27.5299 25.7499 28.1051 25.4831 28.4185 25.8091C28.7093 26.1116 28.5123 26.6725 28.516 27.1187C28.5292 28.5062 28.5207 28.5184 27.1274 28.4996C26.6535 28.4931 26.0577 28.7176 25.7368 28.3869C25.4375 28.0788 25.6439 27.4944 25.6393 27.0323C25.6252 25.6889 25.6346 25.6889 26.981 25.6889C27.012 25.6889 27.0429 25.6889 27.149 25.6889H27.148Z" fill="#D0D7E1"/>
<path d="M34.6108 22.3359C34.6121 23.2647 34.1508 23.7291 33.2269 23.7291C32.8853 23.7291 32.5429 23.7216 32.2013 23.7301C31.9367 23.7366 31.7941 23.6464 31.7969 23.3562C31.8054 22.6563 31.8016 21.9555 31.7997 21.2556C31.7997 21.0236 31.9029 20.9146 32.1375 20.9155C32.8525 20.9193 33.5675 20.9193 34.2824 20.9155C34.5226 20.9146 34.6146 21.0339 34.6118 21.2622C34.6071 21.6201 34.6108 21.978 34.6108 22.3359Z" fill="#CFD6E0"/>
<path d="M13.4591 22.2964C13.4578 21.3739 13.9229 20.9127 14.8543 20.9127C15.1959 20.9127 15.5383 20.9211 15.8799 20.9117C16.1539 20.9042 16.2768 21.0169 16.273 21.2978C16.2655 21.9827 16.2646 22.6675 16.273 23.3524C16.2768 23.6379 16.1445 23.7347 15.8752 23.7319C15.1912 23.7234 14.5072 23.7253 13.8232 23.7319C13.5698 23.7338 13.4516 23.6314 13.4572 23.3721C13.4647 23.0142 13.4591 22.6562 13.4591 22.2983V22.2964Z" fill="#CFD6E0"/>
<path d="M33.2018 25.6787C33.5602 25.6787 33.9196 25.6871 34.278 25.6759C34.5079 25.6684 34.6167 25.7313 34.6121 25.9887C34.5989 26.7384 34.6027 27.488 34.6102 28.2377C34.612 28.4415 34.5351 28.5101 34.3362 28.5082C33.5715 28.5017 32.8077 28.5007 32.043 28.5082C31.831 28.5101 31.7784 28.4124 31.7803 28.2245C31.785 27.4749 31.7869 26.7252 31.7794 25.9756C31.7766 25.7538 31.8601 25.6702 32.0806 25.6768C32.4549 25.6881 32.8293 25.6796 33.2037 25.6796L33.2018 25.6787Z" fill="#CFD6E0"/>
<path d="M16.273 31.8711C16.273 32.2131 16.2645 32.556 16.2748 32.8979C16.2833 33.1788 16.1566 33.2868 15.8826 33.2831C15.1986 33.2746 14.5155 33.2746 13.8315 33.2831C13.5425 33.2868 13.4543 33.1487 13.4572 32.8819C13.4656 32.2131 13.4675 31.5442 13.4572 30.8753C13.4525 30.5747 13.5735 30.4573 13.8719 30.462C14.524 30.4723 15.177 30.477 15.8301 30.4601C16.1857 30.4507 16.2964 30.6085 16.2786 30.9383C16.2626 31.2483 16.2748 31.5602 16.2748 31.8711H16.273Z" fill="#CFD6E0"/>
</svg>
