<svg width="48" height="48" viewBox="0 0 48 48" fill="none" xmlns="http://www.w3.org/2000/svg">
<g clip-path="url(#clip0_264_813)">
<path d="M22.1089 0H23.2344C23.8963 0.185071 24.5856 0.18601 25.2579 0.298743C29.9056 1.07473 33.9968 3.02877 37.5021 6.16558C39.6948 8.12902 41.486 10.4278 42.8071 13.0658C44.729 16.9044 45.6505 20.9562 45.3891 25.2673C45.3026 26.6887 45.1221 28.0866 44.8033 29.4704C43.8837 33.464 42.0154 36.9719 39.3008 40.0213C37.8444 41.6578 36.1716 43.0632 34.3108 44.2385C31.6113 45.9445 28.6974 47.0916 25.5456 47.6223C24.7492 47.7567 23.9462 47.8534 23.1469 47.9681C23.0689 47.9718 22.9909 47.9812 22.9138 47.9775C17.8071 47.6909 13.1594 46.091 9.18389 42.8575C2.17698 37.1579 -0.836599 29.7466 0.198641 20.7843C0.762805 15.9048 2.81918 11.6266 6.11484 7.97965C9.8214 3.87897 14.409 1.33119 19.8645 0.353231C20.611 0.218891 21.3783 0.223588 22.1089 0ZM22.5847 5.36329C20.6044 5.49293 18.6825 5.90911 16.8725 6.71421C10.0038 9.77023 6.0415 15.0405 5.36732 22.5213C4.82761 28.5065 6.92724 33.6359 11.3343 37.7441C14.4908 40.6864 18.2716 42.2919 22.5837 42.6236C23.9443 42.8218 25.303 42.7128 26.6466 42.5165C30.372 41.9725 33.6855 40.4826 36.4593 37.9301C41.3187 33.4583 43.3694 27.8893 42.5138 21.3611C41.8725 16.4666 39.5152 12.4354 35.6375 9.36251C31.8238 6.33937 27.4619 4.98094 22.5847 5.36423V5.36329Z" fill="#ED1C25"/>
<path d="M47.9998 25.9625C47.7986 26.5046 47.8249 27.0833 47.7356 27.6432C46.8019 33.4771 44.0892 38.3247 39.6398 42.1933C36.2689 45.1234 32.3471 46.9281 27.9485 47.6825C26.3622 47.9549 24.7581 48.0582 23.1465 47.9681C23.9467 47.8534 24.7487 47.7567 25.5451 47.6223C28.6969 47.0925 31.6108 45.9454 34.3103 44.2385C36.1702 43.0623 37.8439 41.6578 39.3004 40.0213C42.0149 36.9719 43.8833 33.464 44.8029 29.4704C45.1216 28.0866 45.3021 26.6887 45.3886 25.2673C45.65 20.9562 44.7276 16.9044 42.8067 13.0658C41.4865 10.4278 39.6953 8.12902 37.5016 6.16558C33.9972 3.02783 29.9052 1.07379 25.2574 0.298744C24.5851 0.18695 23.8959 0.185071 23.2339 0H25.9541C26.0002 0.116491 26.1046 0.0883078 26.192 0.0920656C26.9715 0.132462 27.7444 0.248953 28.5051 0.403961C34.4928 1.61678 39.3775 4.62771 43.1038 9.46585C45.5833 12.6853 47.1131 16.3229 47.7356 20.3427C47.8268 20.9346 47.808 21.5424 47.9988 22.1192V25.9616L47.9998 25.9625Z" fill="#DE1A22"/>
<path d="M22.5837 42.6235C18.2716 42.2919 14.4908 40.6864 11.3343 37.7441C6.92723 33.6359 4.8276 28.5065 5.36731 22.5213C6.04243 15.0405 10.0038 9.77022 16.8725 6.7142C18.6835 5.9091 20.6044 5.49292 22.5847 5.36328C22.9683 5.41683 23.3529 5.46662 23.7355 5.52487C27.7223 6.13363 31.1552 7.8716 34.0372 10.6683C35.8256 12.4044 37.1702 14.4599 38.149 16.7578C39.4973 19.9219 39.9186 23.2174 39.4278 26.5976C38.779 31.059 36.7847 34.8374 33.4128 37.8784C31.1505 39.9179 28.5497 41.2999 25.6152 42.0777C24.6194 42.3417 23.6039 42.4948 22.5847 42.6235H22.5837ZM17.794 23.2823C17.7178 23.256 17.6557 23.2794 17.6012 23.3339C17.2702 23.4175 17.1311 23.6533 17.1226 23.9709C17.1132 24.3081 17.2514 24.559 17.6012 24.6529C17.6548 24.7065 17.7159 24.7309 17.7911 24.7046C19.2288 24.7074 20.6656 24.7093 22.1032 24.7121C22.2593 24.7825 22.2941 24.9488 22.3797 25.0728C23.0294 26.017 24.0882 26.1645 25.2795 25.474C26.8347 26.2725 28.3899 27.072 29.9451 27.8705C30.3203 28.0631 30.6889 28.2688 31.0725 28.4436C31.489 28.6333 31.8905 28.4905 32.0701 28.1204C32.2422 27.7653 32.1181 27.4017 31.7373 27.1669C31.6179 27.0936 31.4909 27.0325 31.3659 26.9686C29.5605 26.0414 27.7552 25.1151 25.9508 24.1888C25.9132 23.5359 25.7506 22.9412 25.2184 22.4969C25.0529 22.3588 24.8197 22.3146 24.704 22.1136C24.7031 19.4287 24.7012 16.7428 24.7003 14.0578C24.7369 13.9554 24.6956 13.8718 24.6363 13.7929C24.2602 13.1766 23.7111 13.1766 23.335 13.7929C23.3171 13.8493 23.3002 13.9057 23.2823 13.962C23.2776 16.6798 23.272 19.3967 23.2673 22.1145C22.8037 22.4264 22.421 22.8172 22.1042 23.2757C20.6674 23.2776 19.2307 23.2804 17.794 23.2823ZM24.7153 9.82377H24.7125C24.7125 9.62179 24.7351 9.41699 24.7078 9.21876C24.6533 8.81668 24.4144 8.57055 24.0016 8.54142C23.6274 8.51418 23.2946 8.81762 23.2626 9.23192C23.2344 9.60206 23.2353 9.97784 23.2616 10.3489C23.2908 10.766 23.6143 11.0563 23.9913 11.0526C24.3683 11.0488 24.6702 10.7566 24.7125 10.3367C24.7294 10.1676 24.7153 9.99568 24.7153 9.82471V9.82377ZM38.1396 23.2757C37.9224 23.2757 37.7005 23.2475 37.4889 23.2823C37.1053 23.3452 36.8712 23.597 36.8646 23.9831C36.8589 24.3692 37.0827 24.6538 37.4673 24.6961C37.8961 24.7431 38.3389 24.7459 38.7668 24.6961C39.1457 24.652 39.3713 24.3776 39.3648 23.9821C39.3582 23.5857 39.1203 23.3499 38.7423 23.2823C38.5467 23.2475 38.3399 23.2757 38.1386 23.2766L38.1396 23.2757ZM24.6344 38.1358C24.6344 37.9498 24.6476 37.7619 24.6316 37.5778C24.5968 37.1588 24.2959 36.8629 23.9161 36.8554C23.539 36.8488 23.2203 37.1344 23.1892 37.5571C23.162 37.9273 23.161 38.303 23.1883 38.6732C23.2193 39.0988 23.5334 39.374 23.9189 39.3656C24.3072 39.3571 24.595 39.0724 24.6316 38.6469C24.6457 38.4778 24.6344 38.3059 24.6335 38.1349L24.6344 38.1358ZM9.76591 24.6416C9.95208 24.6416 10.1401 24.6557 10.3254 24.6388C10.741 24.6022 11.0334 24.294 11.0325 23.9126C11.0325 23.5321 10.7419 23.2249 10.3179 23.2005C9.94644 23.1789 9.57127 23.177 9.19986 23.2033C8.7852 23.2325 8.55202 23.4889 8.51911 23.8976C8.48902 24.2752 8.79555 24.5975 9.20645 24.6388C9.39074 24.6576 9.57879 24.6416 9.76497 24.6426L9.76591 24.6416ZM33.6169 15.08C33.6883 15.0621 33.7899 15.0584 33.867 15.0133C34.3456 14.7314 34.7349 14.3387 35.0198 13.8765C35.19 13.5994 35.1063 13.2603 34.8195 13.0376C34.5421 12.8225 34.2252 12.7915 33.9573 13.0188C33.6253 13.3007 33.3169 13.6154 33.0311 13.9442C32.843 14.1602 32.8477 14.4317 32.9888 14.691C33.1204 14.9334 33.3376 15.0358 33.6178 15.08H33.6169ZM33.4006 32.9059C33.2521 32.9181 33.033 33.0534 32.9117 33.3155C32.781 33.5964 32.8205 33.8726 33.0283 34.1C33.2699 34.3649 33.5247 34.6204 33.7889 34.8637C34.103 35.1531 34.5242 35.1578 34.8035 34.8966C35.11 34.6101 35.127 34.1958 34.8176 33.8519C34.5778 33.5851 34.3146 33.339 34.0532 33.0929C33.9131 32.9614 33.7401 32.8881 33.4006 32.9069V32.9059ZM15.0625 14.2542C15.0446 14.1931 15.0371 14.1105 14.9985 14.0466C14.7052 13.5637 14.3168 13.1541 13.8317 12.8788C13.5458 12.7163 13.2177 12.8225 13.0051 13.1071C12.7955 13.388 12.7823 13.7009 13.007 13.9648C13.2769 14.2833 13.5759 14.5811 13.8909 14.8554C14.1175 15.0527 14.3996 15.064 14.6751 14.9174C14.9355 14.7793 15.0333 14.5464 15.0634 14.2532L15.0625 14.2542ZM14.9872 33.5992C14.9948 33.2826 14.8603 33.0609 14.6074 32.9275C14.3356 32.7847 14.0507 32.8035 13.8194 33.0093C13.5279 33.2686 13.2468 33.5419 12.9882 33.8341C12.7249 34.131 12.7456 34.5462 13.0004 34.8111C13.2769 35.0995 13.6868 35.1249 14.0103 34.8393C14.2905 34.5922 14.5463 34.316 14.8058 34.0455C14.9271 33.9186 14.9948 33.7599 14.9872 33.5992Z" fill="#F5F1E5"/>
<path d="M22.5839 42.6234C23.6041 42.4947 24.6187 42.3407 25.6144 42.0776C28.55 41.2998 31.1508 39.9178 33.4121 37.8783C36.784 34.8373 38.7783 31.0589 39.4271 26.5974C39.9188 23.2183 39.4966 19.9227 38.1483 16.7577C37.1695 14.4598 35.8249 12.4043 34.0365 10.6682C31.1545 7.87149 27.7216 6.13351 23.7348 5.52475C23.3522 5.46651 22.9676 5.41672 22.5839 5.36317C27.4611 4.97988 31.8221 6.33831 35.6368 9.36145C39.5136 12.4344 41.8708 16.4655 42.513 21.36C43.3687 27.8882 41.3179 33.4582 36.4586 37.929C33.6848 40.4815 30.3703 41.9715 26.6459 42.5154C25.3032 42.7117 23.9436 42.8207 22.583 42.6225L22.5839 42.6234Z" fill="#EDE8D9"/>
<path d="M23.3343 13.793C23.7095 13.1777 24.2595 13.1777 24.6356 13.793C24.6215 13.8898 24.6262 13.9819 24.6996 14.058C24.7005 16.7429 24.7024 19.4288 24.7033 22.1137C24.2247 22.0855 23.7461 22.0301 23.2666 22.1137C23.2713 19.3959 23.2769 16.679 23.2816 13.9612C23.2995 13.9048 23.3164 13.8494 23.3343 13.793Z" fill="#364C5F"/>
<path d="M23.2666 22.1146C23.7452 22.031 24.2238 22.0855 24.7034 22.1146C24.819 22.3166 25.0522 22.3607 25.2177 22.4979C25.7499 22.9413 25.9125 23.5369 25.9502 24.1898C25.8373 24.6755 25.6267 25.1105 25.2807 25.475C24.0894 26.1664 23.0306 26.0189 22.3809 25.0738C22.2953 24.9498 22.2615 24.7835 22.1044 24.7131C22.0602 24.234 22.0602 23.7549 22.1044 23.2767C22.4213 22.8182 22.804 22.4274 23.2676 22.1155L23.2666 22.1146Z" fill="#416582"/>
<path d="M25.2802 25.4739C25.6272 25.1094 25.8378 24.6754 25.9497 24.1887C27.755 25.115 29.5603 26.0413 31.3647 26.9685C31.4898 27.0324 31.6167 27.0935 31.7361 27.1668C32.1169 27.4007 32.241 27.7652 32.069 28.1203C31.8894 28.4904 31.4879 28.6323 31.0713 28.4435C30.6877 28.2687 30.3191 28.063 29.944 27.8704C28.3887 27.0719 26.8335 26.2724 25.2783 25.4739H25.2802Z" fill="#ED1C25"/>
<path d="M22.1041 23.2756C22.059 23.7548 22.0599 24.2339 22.1041 24.712C20.6664 24.7092 19.2297 24.7073 17.792 24.7045C17.7394 24.6463 17.6736 24.6378 17.6021 24.6529C17.2523 24.5589 17.1141 24.3081 17.1235 23.9708C17.132 23.6542 17.2711 23.4175 17.6021 23.3339C17.6754 23.3489 17.7413 23.3395 17.7948 23.2822C19.2316 23.2803 20.6683 23.2775 22.1051 23.2756H22.1041Z" fill="#364C5F"/>
<path d="M24.7149 9.82369C24.7149 9.99467 24.729 10.1666 24.712 10.3357C24.6697 10.7566 24.3688 11.0478 23.9908 11.0515C23.6138 11.0553 23.2913 10.766 23.2612 10.3479C23.2349 9.97682 23.2339 9.60104 23.2621 9.2309C23.2932 8.81661 23.627 8.51411 24.0012 8.54041C24.413 8.56953 24.6528 8.81567 24.7073 9.21775C24.7346 9.41597 24.712 9.62077 24.712 9.82275H24.7149V9.82369Z" fill="#364C5F"/>
<path d="M38.1394 23.2756C38.3416 23.2756 38.5484 23.2465 38.7431 23.2813C39.1211 23.3489 39.3589 23.5847 39.3655 23.9812C39.3721 24.3767 39.1464 24.651 38.7675 24.6951C38.3397 24.7449 37.8968 24.7421 37.4681 24.6951C37.0835 24.6529 36.8597 24.3682 36.8653 23.9821C36.871 23.596 37.106 23.3442 37.4897 23.2813C37.7012 23.2465 37.9231 23.2747 38.1403 23.2747L38.1394 23.2756Z" fill="#364C5F"/>
<path d="M24.6341 38.1359C24.6341 38.3068 24.6464 38.4788 24.6323 38.6479C24.5965 39.0734 24.3079 39.3581 23.9195 39.3665C23.5331 39.375 23.22 39.0997 23.1889 38.6742C23.1617 38.304 23.1626 37.9283 23.1899 37.5581C23.2209 37.1354 23.5397 36.8488 23.9167 36.8563C24.2966 36.8639 24.5965 37.1598 24.6323 37.5788C24.6473 37.7638 24.6351 37.9508 24.6351 38.1368L24.6341 38.1359Z" fill="#364C5F"/>
<path d="M9.76536 24.6417C9.57919 24.6417 9.39113 24.6567 9.20684 24.638C8.79594 24.5966 8.49035 24.2744 8.5195 23.8967C8.55147 23.489 8.7856 23.2316 9.20026 23.2025C9.57167 23.1762 9.94684 23.1781 10.3182 23.1997C10.7432 23.225 11.0319 23.5322 11.0329 23.9118C11.0329 24.2932 10.7414 24.6013 10.3258 24.638C10.1405 24.6549 9.95342 24.6408 9.7663 24.6408L9.76536 24.6417Z" fill="#364C5F"/>
<path d="M33.6165 15.08C33.3363 15.0358 33.1191 14.9334 32.9874 14.6911C32.8464 14.4318 32.8417 14.1603 33.0297 13.9442C33.3156 13.6154 33.624 13.3007 33.9559 13.0188C34.2239 12.7906 34.5408 12.8216 34.8181 13.0376C35.1049 13.2603 35.1886 13.5994 35.0184 13.8766C34.7345 14.3388 34.3442 14.7315 33.8656 15.0133C33.7885 15.0584 33.687 15.0621 33.6155 15.08H33.6165Z" fill="#364C5F"/>
<path d="M33.4003 32.906C33.7397 32.8872 33.9127 32.9596 34.0528 33.092C34.3142 33.3382 34.5775 33.5852 34.8173 33.8511C35.1266 34.1949 35.1106 34.6092 34.8032 34.8958C34.523 35.1569 34.1026 35.1522 33.7886 34.8629C33.5244 34.6196 33.2696 34.365 33.0279 34.0991C32.8201 33.8718 32.7806 33.5956 32.9113 33.3147C33.0326 33.0535 33.2517 32.9173 33.4003 32.9051V32.906Z" fill="#364C5F"/>
<path d="M15.0627 14.2543C15.0326 14.5465 14.9348 14.7795 14.6743 14.9185C14.3988 15.0651 14.1168 15.0538 13.8902 14.8565C13.5752 14.5822 13.2771 14.2844 13.0063 13.9659C12.7816 13.7019 12.7957 13.3891 13.0044 13.1082C13.2169 12.8235 13.5451 12.7174 13.8309 12.8799C14.3161 13.1552 14.7035 13.5638 14.9978 14.0476C15.0363 14.1115 15.0439 14.1942 15.0617 14.2553L15.0627 14.2543Z" fill="#364C5F"/>
<path d="M14.9869 33.5992C14.9944 33.7599 14.9276 33.9177 14.8054 34.0455C14.5459 34.316 14.2901 34.5922 14.0099 34.8393C13.6865 35.1239 13.2765 35.0995 13.0001 34.8111C12.7462 34.5462 12.7246 34.131 12.9878 33.8341C13.2464 33.5429 13.5275 33.2685 13.819 33.0093C14.0503 32.8035 14.3352 32.7847 14.607 32.9275C14.8599 33.06 14.9944 33.2817 14.9869 33.5992Z" fill="#364C5F"/>
<path d="M24.699 14.0579C24.6266 13.9818 24.621 13.8897 24.6351 13.793C24.6943 13.8719 24.7357 13.9555 24.699 14.0579Z" fill="#416582"/>
<path d="M17.7933 23.2822C17.7397 23.3404 17.6739 23.3498 17.6006 23.3339C17.6542 23.2794 17.7172 23.255 17.7933 23.2822Z" fill="#416582"/>
<path d="M17.6006 24.653C17.673 24.638 17.7388 24.6464 17.7905 24.7047C17.7153 24.731 17.6542 24.7066 17.6006 24.653Z" fill="#416582"/>
</g>
<defs>
<clipPath id="clip0_264_813">
<rect width="48" height="48" fill="white"/>
</clipPath>
</defs>
</svg>
