<svg width="10" height="17" viewBox="0 0 10 17" fill="none" xmlns="http://www.w3.org/2000/svg">
<path d="M3.54596 8.42064C4.82819 7.14026 6.07871 5.89158 7.32923 4.64223C8.07505 3.89738 8.82483 3.15583 9.56338 2.40371C9.96437 1.99563 10.1077 1.50302 9.91548 0.951648C9.73051 0.419422 9.33944 0.109726 8.78387 0.01728C8.40601 -0.0454514 8.06712 0.0668052 7.76258 0.286035C7.67406 0.350087 7.59413 0.426685 7.51618 0.504604C5.23908 2.77812 2.96463 5.05428 0.685555 7.32648C0.246254 7.76493 0.0342019 8.27009 0.254182 8.87231C0.34072 9.11003 0.504549 9.33784 0.684893 9.51943C2.95406 11.8009 5.2338 14.0717 7.50825 16.3479C7.9383 16.7784 8.43573 16.9785 9.03093 16.7798C9.56404 16.6015 9.88047 16.2139 9.97626 15.6585C10.0436 15.2689 9.93199 14.919 9.6955 14.6099C9.60235 14.4884 9.49203 14.3795 9.3837 14.2712C7.52807 12.415 5.67112 10.5595 3.81549 8.70326C3.73159 8.6194 3.651 8.53224 3.5453 8.42064L3.54596 8.42064Z" fill="#F5F1E5"/>
</svg>
